<svg width="300" height="100" viewBox="0 0 300 100" fill="none" xmlns="http://www.w3.org/2000/svg">
<g clip-path="url(#clip0_1_2)">
<path d="M280 0H20C8.9543 0 0 8.9543 0 20V80C0 91.0457 8.9543 100 20 100H280C291.046 100 300 91.0457 300 80V20C300 8.9543 291.046 0 280 0Z" fill="white" fill-opacity="0.8"/>
<path d="M92.234 35.988C92.234 36.7627 92.136 37.4673 91.94 38.102C91.7533 38.7273 91.464 39.2687 91.072 39.726C90.6893 40.1833 90.1993 40.5287 89.602 40.762L92.01 43.38H89.63L87.768 41.14C87.7307 41.14 87.6887 41.14 87.642 41.14C87.6047 41.14 87.5673 41.14 87.53 41.14C86.7273 41.14 86.0273 41.0187 85.43 40.776C84.842 40.524 84.3567 40.174 83.974 39.726C83.5913 39.2687 83.302 38.7227 83.106 38.088C82.9193 37.4533 82.826 36.7487 82.826 35.974C82.826 34.938 82.994 34.0373 83.33 33.272C83.6753 32.5067 84.1933 31.914 84.884 31.494C85.584 31.0647 86.4707 30.85 87.544 30.85C88.5987 30.85 89.4713 31.0647 90.162 31.494C90.8527 31.914 91.3707 32.5113 91.716 33.286C92.0613 34.0513 92.234 34.952 92.234 35.988ZM84.716 35.988C84.716 36.744 84.814 37.3927 85.01 37.934C85.2153 38.4753 85.5233 38.8907 85.934 39.18C86.354 39.4693 86.886 39.614 87.53 39.614C88.1927 39.614 88.7293 39.4693 89.14 39.18C89.5507 38.8907 89.854 38.4753 90.05 37.934C90.246 37.3927 90.344 36.744 90.344 35.988C90.344 34.8587 90.1247 33.972 89.686 33.328C89.2473 32.684 88.5333 32.362 87.544 32.362C86.8907 32.362 86.354 32.5067 85.934 32.796C85.5233 33.0853 85.2153 33.5007 85.01 34.042C84.814 34.5833 84.716 35.232 84.716 35.988ZM100.929 33.412V41H99.5425L99.3045 40.02H99.2205C99.0619 40.2813 98.8565 40.496 98.6045 40.664C98.3525 40.8227 98.0772 40.9393 97.7785 41.014C97.4799 41.098 97.1719 41.14 96.8545 41.14C96.2945 41.14 95.8092 41.042 95.3985 40.846C94.9879 40.65 94.6752 40.3513 94.4605 39.95C94.2459 39.5393 94.1385 39.012 94.1385 38.368V33.412H95.9025V38.018C95.9025 38.578 96.0145 39.0027 96.2385 39.292C96.4625 39.572 96.8172 39.712 97.3025 39.712C97.7785 39.712 98.1519 39.614 98.4225 39.418C98.6932 39.2127 98.8845 38.9187 98.9965 38.536C99.1085 38.1533 99.1645 37.682 99.1645 37.122V33.412H100.929ZM106.201 33.272C107.181 33.272 107.923 33.4867 108.427 33.916C108.94 34.336 109.197 34.9987 109.197 35.904V41H107.951L107.601 39.95H107.545C107.33 40.2207 107.106 40.4493 106.873 40.636C106.649 40.8133 106.388 40.9393 106.089 41.014C105.8 41.098 105.445 41.14 105.025 41.14C104.577 41.14 104.171 41.056 103.807 40.888C103.452 40.72 103.172 40.4633 102.967 40.118C102.762 39.7633 102.659 39.32 102.659 38.788C102.659 38.004 102.944 37.416 103.513 37.024C104.092 36.6227 104.964 36.4033 106.131 36.366L107.447 36.324V35.946C107.447 35.4607 107.33 35.1153 107.097 34.91C106.864 34.7047 106.537 34.602 106.117 34.602C105.734 34.602 105.366 34.658 105.011 34.77C104.656 34.882 104.311 35.0127 103.975 35.162L103.415 33.93C103.788 33.734 104.213 33.5753 104.689 33.454C105.174 33.3327 105.678 33.272 106.201 33.272ZM106.523 37.444C105.748 37.472 105.212 37.6073 104.913 37.85C104.614 38.0833 104.465 38.4007 104.465 38.802C104.465 39.1567 104.572 39.4133 104.787 39.572C105.002 39.7307 105.277 39.81 105.613 39.81C106.126 39.81 106.56 39.6653 106.915 39.376C107.27 39.0773 107.447 38.6387 107.447 38.06V37.416L106.523 37.444ZM113.171 41H111.407V30.36H113.171V41ZM117.191 33.412V41H115.427V33.412H117.191ZM116.309 30.486C116.57 30.486 116.799 30.556 116.995 30.696C117.191 30.8267 117.289 31.0647 117.289 31.41C117.289 31.746 117.191 31.9887 116.995 32.138C116.799 32.278 116.57 32.348 116.309 32.348C116.038 32.348 115.805 32.278 115.609 32.138C115.422 31.9887 115.329 31.746 115.329 31.41C115.329 31.0647 115.422 30.8267 115.609 30.696C115.805 30.556 116.038 30.486 116.309 30.486ZM122.387 39.726C122.611 39.726 122.825 39.7073 123.031 39.67C123.236 39.6233 123.427 39.572 123.605 39.516V40.832C123.418 40.916 123.175 40.986 122.877 41.042C122.578 41.1073 122.265 41.14 121.939 41.14C121.509 41.14 121.117 41.07 120.763 40.93C120.417 40.7807 120.137 40.5287 119.923 40.174C119.717 39.8193 119.615 39.3247 119.615 38.69V34.742H118.593V33.972L119.713 33.356L120.273 31.746H121.379V33.412H123.535V34.742H121.379V38.676C121.379 39.0307 121.472 39.2967 121.659 39.474C121.845 39.642 122.088 39.726 122.387 39.726ZM124 33.412H125.918L127.43 37.696C127.495 37.8827 127.551 38.0647 127.598 38.242C127.654 38.41 127.701 38.5827 127.738 38.76C127.775 38.9373 127.803 39.1147 127.822 39.292H127.878C127.915 39.0587 127.971 38.802 128.046 38.522C128.13 38.242 128.214 37.9667 128.298 37.696L129.754 33.412H131.658L128.424 42.008C128.237 42.5027 127.999 42.9273 127.71 43.282C127.43 43.6367 127.094 43.9027 126.702 44.08C126.319 44.2667 125.885 44.36 125.4 44.36C125.176 44.36 124.975 44.346 124.798 44.318C124.63 44.2993 124.481 44.276 124.35 44.248V42.848C124.453 42.8667 124.574 42.8853 124.714 42.904C124.863 42.9227 125.017 42.932 125.176 42.932C125.465 42.932 125.713 42.8713 125.918 42.75C126.133 42.638 126.31 42.4793 126.45 42.274C126.599 42.0687 126.721 41.84 126.814 41.588L127.038 40.972L124 33.412ZM139.493 41.14C138.774 41.14 138.149 41.0047 137.617 40.734C137.094 40.454 136.688 40.0293 136.399 39.46C136.119 38.8813 135.979 38.144 135.979 37.248C135.979 36.3147 136.133 35.5587 136.441 34.98C136.758 34.392 137.192 33.9627 137.743 33.692C138.294 33.412 138.924 33.272 139.633 33.272C140.109 33.272 140.534 33.3187 140.907 33.412C141.28 33.5053 141.598 33.6173 141.859 33.748L141.341 35.134C141.052 35.022 140.762 34.9287 140.473 34.854C140.184 34.77 139.904 34.728 139.633 34.728C139.213 34.728 138.863 34.8213 138.583 35.008C138.312 35.1947 138.112 35.4747 137.981 35.848C137.85 36.212 137.785 36.674 137.785 37.234C137.785 37.7753 137.85 38.228 137.981 38.592C138.121 38.956 138.326 39.2313 138.597 39.418C138.868 39.5953 139.204 39.684 139.605 39.684C140.034 39.684 140.412 39.6327 140.739 39.53C141.066 39.4273 141.374 39.2873 141.663 39.11V40.636C141.374 40.8133 141.061 40.9393 140.725 41.014C140.398 41.098 139.988 41.14 139.493 41.14ZM146.493 33.272C147.174 33.272 147.757 33.412 148.243 33.692C148.737 33.9627 149.12 34.3547 149.391 34.868C149.661 35.372 149.797 35.988 149.797 36.716V37.612H144.785C144.803 38.3027 144.995 38.8393 145.359 39.222C145.723 39.5953 146.227 39.782 146.871 39.782C147.365 39.782 147.804 39.7353 148.187 39.642C148.579 39.5393 148.98 39.3947 149.391 39.208V40.622C149.017 40.7993 148.63 40.93 148.229 41.014C147.827 41.098 147.347 41.14 146.787 41.14C146.049 41.14 145.391 41 144.813 40.72C144.243 40.4307 143.795 39.9967 143.469 39.418C143.151 38.8393 142.993 38.1207 142.993 37.262C142.993 36.394 143.137 35.666 143.427 35.078C143.725 34.4807 144.136 34.0327 144.659 33.734C145.181 33.426 145.793 33.272 146.493 33.272ZM146.493 34.574C146.026 34.574 145.643 34.728 145.345 35.036C145.055 35.3347 144.883 35.7827 144.827 36.38H148.089C148.089 36.0253 148.028 35.7127 147.907 35.442C147.795 35.1713 147.622 34.9613 147.389 34.812C147.155 34.6533 146.857 34.574 146.493 34.574ZM155.551 33.272C155.663 33.272 155.794 33.2767 155.943 33.286C156.093 33.2953 156.219 33.314 156.321 33.342L156.167 34.98C156.083 34.9613 155.971 34.9473 155.831 34.938C155.701 34.9193 155.584 34.91 155.481 34.91C155.201 34.91 154.931 34.9567 154.669 35.05C154.417 35.134 154.189 35.2647 153.983 35.442C153.787 35.61 153.629 35.8293 153.507 36.1C153.395 36.3707 153.339 36.6927 153.339 37.066V41H151.575V33.412H152.933L153.185 34.728H153.269C153.419 34.4573 153.605 34.2147 153.829 34C154.053 33.776 154.31 33.5987 154.599 33.468C154.898 33.3373 155.215 33.272 155.551 33.272ZM160.668 39.726C160.892 39.726 161.106 39.7073 161.312 39.67C161.517 39.6233 161.708 39.572 161.886 39.516V40.832C161.699 40.916 161.456 40.986 161.158 41.042C160.859 41.1073 160.546 41.14 160.22 41.14C159.79 41.14 159.398 41.07 159.044 40.93C158.698 40.7807 158.418 40.5287 158.204 40.174C157.998 39.8193 157.896 39.3247 157.896 38.69V34.742H156.874V33.972L157.994 33.356L158.554 31.746H159.66V33.412H161.816V34.742H159.66V38.676C159.66 39.0307 159.753 39.2967 159.94 39.474C160.126 39.642 160.369 39.726 160.668 39.726ZM165.179 33.412V41H163.415V33.412H165.179ZM164.297 30.486C164.559 30.486 164.787 30.556 164.983 30.696C165.179 30.8267 165.277 31.0647 165.277 31.41C165.277 31.746 165.179 31.9887 164.983 32.138C164.787 32.278 164.559 32.348 164.297 32.348C164.027 32.348 163.793 32.278 163.597 32.138C163.411 31.9887 163.317 31.746 163.317 31.41C163.317 31.0647 163.411 30.8267 163.597 30.696C163.793 30.556 164.027 30.486 164.297 30.486ZM171.369 34.742H169.535V41H167.771V34.742H166.553V33.902L167.771 33.398V32.88C167.771 32.2267 167.873 31.7133 168.079 31.34C168.284 30.9667 168.583 30.7007 168.975 30.542C169.367 30.374 169.829 30.29 170.361 30.29C170.734 30.29 171.07 30.3227 171.369 30.388C171.667 30.444 171.915 30.5093 172.111 30.584L171.663 31.9C171.504 31.8533 171.327 31.8113 171.131 31.774C170.944 31.7273 170.739 31.704 170.515 31.704C170.179 31.704 169.931 31.8113 169.773 32.026C169.614 32.2407 169.535 32.5393 169.535 32.922V33.412H171.369V34.742ZM174.393 33.412V41H172.629V33.412H174.393ZM173.511 30.486C173.772 30.486 174.001 30.556 174.197 30.696C174.393 30.8267 174.491 31.0647 174.491 31.41C174.491 31.746 174.393 31.9887 174.197 32.138C174.001 32.278 173.772 32.348 173.511 32.348C173.24 32.348 173.007 32.278 172.811 32.138C172.624 31.9887 172.531 31.746 172.531 31.41C172.531 31.0647 172.624 30.8267 172.811 30.696C173.007 30.556 173.24 30.486 173.511 30.486ZM179.716 41.14C178.997 41.14 178.372 41.0047 177.84 40.734C177.317 40.454 176.911 40.0293 176.622 39.46C176.342 38.8813 176.202 38.144 176.202 37.248C176.202 36.3147 176.356 35.5587 176.664 34.98C176.981 34.392 177.415 33.9627 177.966 33.692C178.516 33.412 179.146 33.272 179.856 33.272C180.332 33.272 180.756 33.3187 181.13 33.412C181.503 33.5053 181.82 33.6173 182.082 33.748L181.564 35.134C181.274 35.022 180.985 34.9287 180.696 34.854C180.406 34.77 180.126 34.728 179.856 34.728C179.436 34.728 179.086 34.8213 178.806 35.008C178.535 35.1947 178.334 35.4747 178.204 35.848C178.073 36.212 178.008 36.674 178.008 37.234C178.008 37.7753 178.073 38.228 178.204 38.592C178.344 38.956 178.549 39.2313 178.82 39.418C179.09 39.5953 179.426 39.684 179.828 39.684C180.257 39.684 180.635 39.6327 180.962 39.53C181.288 39.4273 181.596 39.2873 181.886 39.11V40.636C181.596 40.8133 181.284 40.9393 180.948 41.014C180.621 41.098 180.21 41.14 179.716 41.14ZM186.687 33.272C187.667 33.272 188.409 33.4867 188.913 33.916C189.427 34.336 189.683 34.9987 189.683 35.904V41H188.437L188.087 39.95H188.031C187.817 40.2207 187.593 40.4493 187.359 40.636C187.135 40.8133 186.874 40.9393 186.575 41.014C186.286 41.098 185.931 41.14 185.511 41.14C185.063 41.14 184.657 41.056 184.293 40.888C183.939 40.72 183.659 40.4633 183.453 40.118C183.248 39.7633 183.145 39.32 183.145 38.788C183.145 38.004 183.43 37.416 183.999 37.024C184.578 36.6227 185.451 36.4033 186.617 36.366L187.933 36.324V35.946C187.933 35.4607 187.817 35.1153 187.583 34.91C187.35 34.7047 187.023 34.602 186.603 34.602C186.221 34.602 185.852 34.658 185.497 34.77C185.143 34.882 184.797 35.0127 184.461 35.162L183.901 33.93C184.275 33.734 184.699 33.5753 185.175 33.454C185.661 33.3327 186.165 33.272 186.687 33.272ZM187.009 37.444C186.235 37.472 185.698 37.6073 185.399 37.85C185.101 38.0833 184.951 38.4007 184.951 38.802C184.951 39.1567 185.059 39.4133 185.273 39.572C185.488 39.7307 185.763 39.81 186.099 39.81C186.613 39.81 187.047 39.6653 187.401 39.376C187.756 39.0773 187.933 38.6387 187.933 38.06V37.416L187.009 37.444ZM194.834 39.726C195.058 39.726 195.272 39.7073 195.478 39.67C195.683 39.6233 195.874 39.572 196.052 39.516V40.832C195.865 40.916 195.622 40.986 195.324 41.042C195.025 41.1073 194.712 41.14 194.386 41.14C193.956 41.14 193.564 41.07 193.21 40.93C192.864 40.7807 192.584 40.5287 192.37 40.174C192.164 39.8193 192.062 39.3247 192.062 38.69V34.742H191.04V33.972L192.16 33.356L192.72 31.746H193.826V33.412H195.982V34.742H193.826V38.676C193.826 39.0307 193.919 39.2967 194.106 39.474C194.292 39.642 194.535 39.726 194.834 39.726ZM200.633 33.272C201.315 33.272 201.898 33.412 202.383 33.692C202.878 33.9627 203.261 34.3547 203.531 34.868C203.802 35.372 203.937 35.988 203.937 36.716V37.612H198.925C198.944 38.3027 199.135 38.8393 199.499 39.222C199.863 39.5953 200.367 39.782 201.011 39.782C201.506 39.782 201.945 39.7353 202.327 39.642C202.719 39.5393 203.121 39.3947 203.531 39.208V40.622C203.158 40.7993 202.771 40.93 202.369 41.014C201.968 41.098 201.487 41.14 200.927 41.14C200.19 41.14 199.532 41 198.953 40.72C198.384 40.4307 197.936 39.9967 197.609 39.418C197.292 38.8393 197.133 38.1207 197.133 37.262C197.133 36.394 197.278 35.666 197.567 35.078C197.866 34.4807 198.277 34.0327 198.799 33.734C199.322 33.426 199.933 33.272 200.633 33.272ZM200.633 34.574C200.167 34.574 199.784 34.728 199.485 35.036C199.196 35.3347 199.023 35.7827 198.967 36.38H202.229C202.229 36.0253 202.169 35.7127 202.047 35.442C201.935 35.1713 201.763 34.9613 201.529 34.812C201.296 34.6533 200.997 34.574 200.633 34.574ZM208.222 41.14C207.345 41.14 206.631 40.8133 206.08 40.16C205.539 39.4973 205.268 38.5173 205.268 37.22C205.268 35.9227 205.543 34.9427 206.094 34.28C206.645 33.608 207.368 33.272 208.264 33.272C208.637 33.272 208.964 33.3233 209.244 33.426C209.533 33.5193 209.781 33.65 209.986 33.818C210.191 33.986 210.364 34.1727 210.504 34.378H210.588C210.56 34.2473 210.532 34.0467 210.504 33.776C210.476 33.5053 210.462 33.2533 210.462 33.02V30.36H212.226V41H210.854L210.532 40.006H210.462C210.322 40.2113 210.149 40.4027 209.944 40.58C209.739 40.748 209.496 40.8833 209.216 40.986C208.936 41.0887 208.605 41.14 208.222 41.14ZM208.754 39.712C209.407 39.712 209.869 39.5253 210.14 39.152C210.411 38.7787 210.546 38.214 210.546 37.458V37.234C210.546 36.4127 210.415 35.7873 210.154 35.358C209.902 34.9287 209.426 34.714 208.726 34.714C208.194 34.714 207.783 34.938 207.494 35.386C207.205 35.8247 207.06 36.4453 207.06 37.248C207.06 38.0507 207.205 38.662 207.494 39.082C207.783 39.502 208.203 39.712 208.754 39.712ZM222.106 33.272C222.993 33.272 223.707 33.6033 224.248 34.266C224.79 34.9193 225.06 35.8947 225.06 37.192C225.06 38.0507 224.934 38.774 224.682 39.362C224.43 39.95 224.08 40.3933 223.632 40.692C223.184 40.9907 222.662 41.14 222.064 41.14C221.7 41.14 221.378 41.0933 221.098 41C220.818 40.8973 220.58 40.7713 220.384 40.622C220.188 40.4633 220.02 40.2953 219.88 40.118H219.768C219.806 40.286 219.834 40.4773 219.852 40.692C219.871 40.8973 219.88 41.0933 219.88 41.28V44.36H218.116V33.412H219.544L219.796 34.42H219.88C220.02 34.2053 220.188 34.014 220.384 33.846C220.59 33.6687 220.832 33.5287 221.112 33.426C221.402 33.3233 221.733 33.272 222.106 33.272ZM221.602 34.7C221.192 34.7 220.86 34.784 220.608 34.952C220.356 35.1107 220.174 35.358 220.062 35.694C219.95 36.03 219.89 36.45 219.88 36.954V37.178C219.88 37.7193 219.932 38.1767 220.034 38.55C220.146 38.9233 220.328 39.208 220.58 39.404C220.842 39.6 221.192 39.698 221.63 39.698C222.004 39.698 222.307 39.5953 222.54 39.39C222.783 39.1847 222.96 38.8953 223.072 38.522C223.194 38.1393 223.254 37.6867 223.254 37.164C223.254 36.38 223.119 35.7733 222.848 35.344C222.587 34.9147 222.172 34.7 221.602 34.7ZM230.856 33.272C230.968 33.272 231.099 33.2767 231.248 33.286C231.397 33.2953 231.523 33.314 231.626 33.342L231.472 34.98C231.388 34.9613 231.276 34.9473 231.136 34.938C231.005 34.9193 230.889 34.91 230.786 34.91C230.506 34.91 230.235 34.9567 229.974 35.05C229.722 35.134 229.493 35.2647 229.288 35.442C229.092 35.61 228.933 35.8293 228.812 36.1C228.7 36.3707 228.644 36.6927 228.644 37.066V41H226.88V33.412H228.238L228.49 34.728H228.574C228.723 34.4573 228.91 34.2147 229.134 34C229.358 33.776 229.615 33.5987 229.904 33.468C230.203 33.3373 230.52 33.272 230.856 33.272ZM239.535 37.192C239.535 37.8267 239.451 38.3867 239.283 38.872C239.115 39.3573 238.872 39.7727 238.555 40.118C238.247 40.454 237.864 40.7107 237.407 40.888C236.959 41.056 236.46 41.14 235.909 41.14C235.386 41.14 234.906 41.056 234.467 40.888C234.028 40.7107 233.646 40.454 233.319 40.118C233.002 39.7727 232.754 39.3573 232.577 38.872C232.4 38.3867 232.311 37.8267 232.311 37.192C232.311 36.352 232.456 35.6427 232.745 35.064C233.034 34.476 233.45 34.0327 233.991 33.734C234.542 33.426 235.19 33.272 235.937 33.272C236.646 33.272 237.267 33.426 237.799 33.734C238.34 34.0327 238.765 34.476 239.073 35.064C239.381 35.6427 239.535 36.352 239.535 37.192ZM234.117 37.192C234.117 37.724 234.178 38.1813 234.299 38.564C234.43 38.9373 234.626 39.222 234.887 39.418C235.158 39.614 235.503 39.712 235.923 39.712C236.352 39.712 236.698 39.614 236.959 39.418C237.23 39.222 237.426 38.9373 237.547 38.564C237.668 38.1813 237.729 37.724 237.729 37.192C237.729 36.6507 237.664 36.198 237.533 35.834C237.412 35.4607 237.216 35.1807 236.945 34.994C236.684 34.798 236.343 34.7 235.923 34.7C235.288 34.7 234.826 34.9147 234.537 35.344C234.257 35.7733 234.117 36.3893 234.117 37.192ZM243.865 41.14C242.987 41.14 242.273 40.8133 241.723 40.16C241.181 39.4973 240.911 38.5173 240.911 37.22C240.911 35.9227 241.186 34.9427 241.737 34.28C242.287 33.608 243.011 33.272 243.907 33.272C244.28 33.272 244.607 33.3233 244.887 33.426C245.176 33.5193 245.423 33.65 245.629 33.818C245.834 33.986 246.007 34.1727 246.147 34.378H246.231C246.203 34.2473 246.175 34.0467 246.147 33.776C246.119 33.5053 246.105 33.2533 246.105 33.02V30.36H247.869V41H246.497L246.175 40.006H246.105C245.965 40.2113 245.792 40.4027 245.587 40.58C245.381 40.748 245.139 40.8833 244.859 40.986C244.579 41.0887 244.247 41.14 243.865 41.14ZM244.397 39.712C245.05 39.712 245.512 39.5253 245.783 39.152C246.053 38.7787 246.189 38.214 246.189 37.458V37.234C246.189 36.4127 246.058 35.7873 245.797 35.358C245.545 34.9287 245.069 34.714 244.369 34.714C243.837 34.714 243.426 34.938 243.137 35.386C242.847 35.8247 242.703 36.4453 242.703 37.248C242.703 38.0507 242.847 38.662 243.137 39.082C243.426 39.502 243.846 39.712 244.397 39.712ZM256.856 33.412V41H255.47L255.232 40.02H255.148C254.99 40.2813 254.784 40.496 254.532 40.664C254.28 40.8227 254.005 40.9393 253.706 41.014C253.408 41.098 253.1 41.14 252.782 41.14C252.222 41.14 251.737 41.042 251.326 40.846C250.916 40.65 250.603 40.3513 250.388 39.95C250.174 39.5393 250.066 39.012 250.066 38.368V33.412H251.83V38.018C251.83 38.578 251.942 39.0027 252.166 39.292C252.39 39.572 252.745 39.712 253.23 39.712C253.706 39.712 254.08 39.614 254.35 39.418C254.621 39.2127 254.812 38.9187 254.924 38.536C255.036 38.1533 255.092 37.682 255.092 37.122V33.412H256.856ZM262.171 41.14C261.452 41.14 260.827 41.0047 260.295 40.734C259.772 40.454 259.366 40.0293 259.077 39.46C258.797 38.8813 258.657 38.144 258.657 37.248C258.657 36.3147 258.811 35.5587 259.119 34.98C259.436 34.392 259.87 33.9627 260.421 33.692C260.971 33.412 261.601 33.272 262.311 33.272C262.787 33.272 263.211 33.3187 263.585 33.412C263.958 33.5053 264.275 33.6173 264.537 33.748L264.019 35.134C263.729 35.022 263.44 34.9287 263.151 34.854C262.861 34.77 262.581 34.728 262.311 34.728C261.891 34.728 261.541 34.8213 261.261 35.008C260.99 35.1947 260.789 35.4747 260.659 35.848C260.528 36.212 260.463 36.674 260.463 37.234C260.463 37.7753 260.528 38.228 260.659 38.592C260.799 38.956 261.004 39.2313 261.275 39.418C261.545 39.5953 261.881 39.684 262.283 39.684C262.712 39.684 263.09 39.6327 263.417 39.53C263.743 39.4273 264.051 39.2873 264.341 39.11V40.636C264.051 40.8133 263.739 40.9393 263.403 41.014C263.076 41.098 262.665 41.14 262.171 41.14ZM269.058 39.726C269.282 39.726 269.497 39.7073 269.702 39.67C269.908 39.6233 270.099 39.572 270.276 39.516V40.832C270.09 40.916 269.847 40.986 269.548 41.042C269.25 41.1073 268.937 41.14 268.61 41.14C268.181 41.14 267.789 41.07 267.434 40.93C267.089 40.7807 266.809 40.5287 266.594 40.174C266.389 39.8193 266.286 39.3247 266.286 38.69V34.742H265.264V33.972L266.384 33.356L266.944 31.746H268.05V33.412H270.206V34.742H268.05V38.676C268.05 39.0307 268.144 39.2967 268.33 39.474C268.517 39.642 268.76 39.726 269.058 39.726ZM276.972 38.802C276.972 39.306 276.851 39.7353 276.608 40.09C276.365 40.4353 276.006 40.6967 275.53 40.874C275.063 41.0513 274.489 41.14 273.808 41.14C273.276 41.14 272.819 41.1027 272.436 41.028C272.053 40.9533 271.689 40.8367 271.344 40.678V39.18C271.717 39.3573 272.133 39.5067 272.59 39.628C273.047 39.7493 273.472 39.81 273.864 39.81C274.349 39.81 274.699 39.7353 274.914 39.586C275.129 39.4367 275.236 39.236 275.236 38.984C275.236 38.8347 275.194 38.6993 275.11 38.578C275.026 38.4567 274.863 38.3307 274.62 38.2C274.377 38.06 274.009 37.8873 273.514 37.682C273.029 37.486 272.623 37.29 272.296 37.094C271.979 36.898 271.736 36.6647 271.568 36.394C271.409 36.114 271.33 35.764 271.33 35.344C271.33 34.6627 271.601 34.1493 272.142 33.804C272.683 33.4493 273.397 33.272 274.284 33.272C274.751 33.272 275.189 33.3187 275.6 33.412C276.02 33.496 276.44 33.636 276.86 33.832L276.3 35.134C276.067 35.0313 275.833 34.9427 275.6 34.868C275.376 34.784 275.147 34.7187 274.914 34.672C274.69 34.6253 274.461 34.602 274.228 34.602C273.845 34.602 273.556 34.6627 273.36 34.784C273.164 34.896 273.066 35.0547 273.066 35.26C273.066 35.4187 273.113 35.5587 273.206 35.68C273.309 35.792 273.481 35.9087 273.724 36.03C273.976 36.142 274.331 36.2913 274.788 36.478C275.245 36.6553 275.633 36.842 275.95 37.038C276.277 37.2247 276.529 37.458 276.706 37.738C276.883 38.018 276.972 38.3727 276.972 38.802ZM280.503 39.53C280.419 39.8567 280.312 40.2113 280.181 40.594C280.05 40.9673 279.91 41.3407 279.761 41.714C279.612 42.0967 279.458 42.4607 279.299 42.806H278.025C278.118 42.442 278.207 42.0547 278.291 41.644C278.375 41.2427 278.454 40.846 278.529 40.454C278.604 40.062 278.664 39.7027 278.711 39.376H280.405L280.503 39.53ZM86.312 50.004C87.18 50.004 87.908 50.088 88.496 50.256C89.084 50.4147 89.5227 50.676 89.812 51.04C90.1107 51.404 90.26 51.894 90.26 52.51C90.26 52.8927 90.1947 53.238 90.064 53.546C89.9333 53.854 89.742 54.106 89.49 54.302C89.2473 54.498 88.944 54.6287 88.58 54.694V54.764C88.9533 54.8293 89.2847 54.9507 89.574 55.128C89.8727 55.296 90.106 55.5433 90.274 55.87C90.4513 56.1873 90.54 56.6073 90.54 57.13C90.54 57.7367 90.3953 58.2547 90.106 58.684C89.8167 59.1133 89.4013 59.44 88.86 59.664C88.328 59.888 87.6933 60 86.956 60H83.302V50.004H86.312ZM86.55 54.078C87.2593 54.078 87.7447 53.966 88.006 53.742C88.2767 53.518 88.412 53.1867 88.412 52.748C88.412 52.3 88.2533 51.978 87.936 51.782C87.6187 51.586 87.11 51.488 86.41 51.488H85.094V54.078H86.55ZM85.094 55.52V58.502H86.718C87.446 58.502 87.95 58.362 88.23 58.082C88.5193 57.802 88.664 57.4287 88.664 56.962C88.664 56.6633 88.6033 56.4067 88.482 56.192C88.3607 55.9773 88.1507 55.814 87.852 55.702C87.5533 55.5807 87.1473 55.52 86.634 55.52H85.094ZM95.4829 52.272C96.1642 52.272 96.7475 52.412 97.2329 52.692C97.7275 52.9627 98.1102 53.3547 98.3809 53.868C98.6515 54.372 98.7869 54.988 98.7869 55.716V56.612H93.7749C93.7935 57.3027 93.9849 57.8393 94.3489 58.222C94.7129 58.5953 95.2169 58.782 95.8609 58.782C96.3555 58.782 96.7942 58.7353 97.1769 58.642C97.5689 58.5393 97.9702 58.3947 98.3809 58.208V59.622C98.0075 59.7993 97.6202 59.93 97.2189 60.014C96.8175 60.098 96.3369 60.14 95.7769 60.14C95.0395 60.14 94.3815 60 93.8029 59.72C93.2335 59.4307 92.7855 58.9967 92.4589 58.418C92.1415 57.8393 91.9829 57.1207 91.9829 56.262C91.9829 55.394 92.1275 54.666 92.4169 54.078C92.7155 53.4807 93.1262 53.0327 93.6489 52.734C94.1715 52.426 94.7829 52.272 95.4829 52.272ZM95.4829 53.574C95.0162 53.574 94.6335 53.728 94.3349 54.036C94.0455 54.3347 93.8729 54.7827 93.8169 55.38H97.0789C97.0789 55.0253 97.0182 54.7127 96.8969 54.442C96.7849 54.1713 96.6122 53.9613 96.3789 53.812C96.1455 53.6533 95.8469 53.574 95.4829 53.574ZM105.732 57.802C105.732 58.306 105.61 58.7353 105.368 59.09C105.125 59.4353 104.766 59.6967 104.29 59.874C103.823 60.0513 103.249 60.14 102.568 60.14C102.036 60.14 101.578 60.1027 101.196 60.028C100.813 59.9533 100.449 59.8367 100.104 59.678V58.18C100.477 58.3573 100.892 58.5067 101.35 58.628C101.807 58.7493 102.232 58.81 102.624 58.81C103.109 58.81 103.459 58.7353 103.674 58.586C103.888 58.4367 103.996 58.236 103.996 57.984C103.996 57.8347 103.954 57.6993 103.87 57.578C103.786 57.4567 103.622 57.3307 103.38 57.2C103.137 57.06 102.768 56.8873 102.274 56.682C101.788 56.486 101.382 56.29 101.056 56.094C100.738 55.898 100.496 55.6647 100.328 55.394C100.169 55.114 100.09 54.764 100.09 54.344C100.09 53.6627 100.36 53.1493 100.902 52.804C101.443 52.4493 102.157 52.272 103.044 52.272C103.51 52.272 103.949 52.3187 104.36 52.412C104.78 52.496 105.2 52.636 105.62 52.832L105.06 54.134C104.826 54.0313 104.593 53.9427 104.36 53.868C104.136 53.784 103.907 53.7187 103.674 53.672C103.45 53.6253 103.221 53.602 102.988 53.602C102.605 53.602 102.316 53.6627 102.12 53.784C101.924 53.896 101.826 54.0547 101.826 54.26C101.826 54.4187 101.872 54.5587 101.966 54.68C102.068 54.792 102.241 54.9087 102.484 55.03C102.736 55.142 103.09 55.2913 103.548 55.478C104.005 55.6553 104.392 55.842 104.71 56.038C105.036 56.2247 105.288 56.458 105.466 56.738C105.643 57.018 105.732 57.3727 105.732 57.802ZM110.369 58.726C110.593 58.726 110.808 58.7073 111.013 58.67C111.218 58.6233 111.41 58.572 111.587 58.516V59.832C111.4 59.916 111.158 59.986 110.859 60.042C110.56 60.1073 110.248 60.14 109.921 60.14C109.492 60.14 109.1 60.07 108.745 59.93C108.4 59.7807 108.12 59.5287 107.905 59.174C107.7 58.8193 107.597 58.3247 107.597 57.69V53.742H106.575V52.972L107.695 52.356L108.255 50.746H109.361V52.412H111.517V53.742H109.361V57.676C109.361 58.0307 109.454 58.2967 109.641 58.474C109.828 58.642 110.07 58.726 110.369 58.726ZM121.499 60.154C121.499 59.9767 121.504 59.7853 121.513 59.58C121.522 59.3653 121.541 59.174 121.569 59.006H121.485C121.28 59.314 121 59.58 120.645 59.804C120.29 60.028 119.824 60.14 119.245 60.14C118.368 60.14 117.658 59.8133 117.117 59.16C116.576 58.4973 116.305 57.5173 116.305 56.22C116.305 55.352 116.431 54.6287 116.683 54.05C116.935 53.462 117.285 53.0187 117.733 52.72C118.181 52.4213 118.699 52.272 119.287 52.272C119.856 52.272 120.323 52.384 120.687 52.608C121.051 52.8227 121.34 53.0887 121.555 53.406H121.611L121.793 52.412H123.263V63.36H121.499V60.154ZM119.805 58.74C120.234 58.74 120.575 58.6607 120.827 58.502C121.088 58.334 121.275 58.082 121.387 57.746C121.508 57.41 121.574 56.99 121.583 56.486V56.234C121.583 55.4127 121.452 54.7873 121.191 54.358C120.93 53.9287 120.458 53.714 119.777 53.714C119.217 53.714 118.797 53.938 118.517 54.386C118.246 54.8247 118.111 55.4453 118.111 56.248C118.111 57.06 118.246 57.6807 118.517 58.11C118.797 58.53 119.226 58.74 119.805 58.74ZM132.251 52.412V60H130.865L130.627 59.02H130.543C130.384 59.2813 130.179 59.496 129.927 59.664C129.675 59.8227 129.399 59.9393 129.101 60.014C128.802 60.098 128.494 60.14 128.177 60.14C127.617 60.14 127.131 60.042 126.721 59.846C126.31 59.65 125.997 59.3513 125.783 58.95C125.568 58.5393 125.461 58.012 125.461 57.368V52.412H127.225V57.018C127.225 57.578 127.337 58.0027 127.561 58.292C127.785 58.572 128.139 58.712 128.625 58.712C129.101 58.712 129.474 58.614 129.745 58.418C130.015 58.2127 130.207 57.9187 130.319 57.536C130.431 57.1533 130.487 56.682 130.487 56.122V52.412H132.251ZM141.275 56.192C141.275 56.8267 141.191 57.3867 141.023 57.872C140.855 58.3573 140.613 58.7727 140.295 59.118C139.987 59.454 139.605 59.7107 139.147 59.888C138.699 60.056 138.2 60.14 137.649 60.14C137.127 60.14 136.646 60.056 136.207 59.888C135.769 59.7107 135.386 59.454 135.059 59.118C134.742 58.7727 134.495 58.3573 134.317 57.872C134.14 57.3867 134.051 56.8267 134.051 56.192C134.051 55.352 134.196 54.6427 134.485 54.064C134.775 53.476 135.19 53.0327 135.731 52.734C136.282 52.426 136.931 52.272 137.677 52.272C138.387 52.272 139.007 52.426 139.539 52.734C140.081 53.0327 140.505 53.476 140.813 54.064C141.121 54.6427 141.275 55.352 141.275 56.192ZM135.857 56.192C135.857 56.724 135.918 57.1813 136.039 57.564C136.17 57.9373 136.366 58.222 136.627 58.418C136.898 58.614 137.243 58.712 137.663 58.712C138.093 58.712 138.438 58.614 138.699 58.418C138.97 58.222 139.166 57.9373 139.287 57.564C139.409 57.1813 139.469 56.724 139.469 56.192C139.469 55.6507 139.404 55.198 139.273 54.834C139.152 54.4607 138.956 54.1807 138.685 53.994C138.424 53.798 138.083 53.7 137.663 53.7C137.029 53.7 136.567 53.9147 136.277 54.344C135.997 54.7733 135.857 55.3893 135.857 56.192ZM146.039 58.726C146.263 58.726 146.478 58.7073 146.683 58.67C146.888 58.6233 147.08 58.572 147.257 58.516V59.832C147.07 59.916 146.828 59.986 146.529 60.042C146.23 60.1073 145.918 60.14 145.591 60.14C145.162 60.14 144.77 60.07 144.415 59.93C144.07 59.7807 143.79 59.5287 143.575 59.174C143.37 58.8193 143.267 58.3247 143.267 57.69V53.742H142.245V52.972L143.365 52.356L143.925 50.746H145.031V52.412H147.187V53.742H145.031V57.676C145.031 58.0307 145.124 58.2967 145.311 58.474C145.498 58.642 145.74 58.726 146.039 58.726ZM151.838 52.272C152.52 52.272 153.103 52.412 153.588 52.692C154.083 52.9627 154.466 53.3547 154.736 53.868C155.007 54.372 155.142 54.988 155.142 55.716V56.612H150.13C150.149 57.3027 150.34 57.8393 150.704 58.222C151.068 58.5953 151.572 58.782 152.216 58.782C152.711 58.782 153.15 58.7353 153.532 58.642C153.924 58.5393 154.326 58.3947 154.736 58.208V59.622C154.363 59.7993 153.976 59.93 153.574 60.014C153.173 60.098 152.692 60.14 152.132 60.14C151.395 60.14 150.737 60 150.158 59.72C149.589 59.4307 149.141 58.9967 148.814 58.418C148.497 57.8393 148.338 57.1207 148.338 56.262C148.338 55.394 148.483 54.666 148.772 54.078C149.071 53.4807 149.482 53.0327 150.004 52.734C150.527 52.426 151.138 52.272 151.838 52.272ZM151.838 53.574C151.372 53.574 150.989 53.728 150.69 54.036C150.401 54.3347 150.228 54.7827 150.172 55.38H153.434C153.434 55.0253 153.374 54.7127 153.252 54.442C153.14 54.1713 152.968 53.9613 152.734 53.812C152.501 53.6533 152.202 53.574 151.838 53.574ZM163.106 52.272C163.582 52.272 164.011 52.3653 164.394 52.552C164.776 52.7387 165.098 53.0187 165.36 53.392H165.43L165.598 52.412H167.068V60.056C167.068 60.7747 166.932 61.3767 166.662 61.862C166.391 62.3567 165.985 62.73 165.444 62.982C164.902 63.234 164.226 63.36 163.414 63.36C162.872 63.36 162.373 63.3227 161.916 63.248C161.458 63.1827 161.024 63.066 160.614 62.898V61.442C160.903 61.5633 161.202 61.666 161.51 61.75C161.827 61.8433 162.154 61.9133 162.49 61.96C162.826 62.0067 163.171 62.03 163.526 62.03C164.104 62.03 164.543 61.8667 164.842 61.54C165.15 61.2133 165.304 60.7467 165.304 60.14V59.944C165.304 59.804 165.308 59.6407 165.318 59.454C165.336 59.2673 165.35 59.118 165.36 59.006H165.304C165.042 59.398 164.725 59.6873 164.352 59.874C163.978 60.0513 163.549 60.14 163.064 60.14C162.14 60.14 161.416 59.7947 160.894 59.104C160.371 58.4133 160.11 57.452 160.11 56.22C160.11 55.3893 160.226 54.68 160.46 54.092C160.702 53.504 161.048 53.056 161.496 52.748C161.944 52.4307 162.48 52.272 163.106 52.272ZM163.568 53.714C163.213 53.714 162.91 53.812 162.658 54.008C162.415 54.1947 162.228 54.4747 162.098 54.848C161.976 55.2213 161.916 55.688 161.916 56.248C161.916 57.0693 162.056 57.69 162.336 58.11C162.616 58.53 163.036 58.74 163.596 58.74C163.913 58.74 164.184 58.7027 164.408 58.628C164.632 58.544 164.814 58.4133 164.954 58.236C165.103 58.0493 165.215 57.816 165.29 57.536C165.364 57.2467 165.402 56.9013 165.402 56.5V56.234C165.402 55.6273 165.336 55.142 165.206 54.778C165.075 54.4047 164.874 54.134 164.604 53.966C164.342 53.798 163.997 53.714 163.568 53.714ZM176.056 52.412V60H174.67L174.432 59.02H174.348C174.189 59.2813 173.984 59.496 173.732 59.664C173.48 59.8227 173.204 59.9393 172.906 60.014C172.607 60.098 172.299 60.14 171.982 60.14C171.422 60.14 170.936 60.042 170.526 59.846C170.115 59.65 169.802 59.3513 169.588 58.95C169.373 58.5393 169.266 58.012 169.266 57.368V52.412H171.03V57.018C171.03 57.578 171.142 58.0027 171.366 58.292C171.59 58.572 171.944 58.712 172.43 58.712C172.906 58.712 173.279 58.614 173.55 58.418C173.82 58.2127 174.012 57.9187 174.124 57.536C174.236 57.1533 174.292 56.682 174.292 56.122V52.412H176.056ZM181.328 52.272C182.308 52.272 183.05 52.4867 183.554 52.916C184.067 53.336 184.324 53.9987 184.324 54.904V60H183.078L182.728 58.95H182.672C182.457 59.2207 182.233 59.4493 182 59.636C181.776 59.8133 181.515 59.9393 181.216 60.014C180.927 60.098 180.572 60.14 180.152 60.14C179.704 60.14 179.298 60.056 178.934 59.888C178.579 59.72 178.299 59.4633 178.094 59.118C177.889 58.7633 177.786 58.32 177.786 57.788C177.786 57.004 178.071 56.416 178.64 56.024C179.219 55.6227 180.091 55.4033 181.258 55.366L182.574 55.324V54.946C182.574 54.4607 182.457 54.1153 182.224 53.91C181.991 53.7047 181.664 53.602 181.244 53.602C180.861 53.602 180.493 53.658 180.138 53.77C179.783 53.882 179.438 54.0127 179.102 54.162L178.542 52.93C178.915 52.734 179.34 52.5753 179.816 52.454C180.301 52.3327 180.805 52.272 181.328 52.272ZM181.65 56.444C180.875 56.472 180.339 56.6073 180.04 56.85C179.741 57.0833 179.592 57.4007 179.592 57.802C179.592 58.1567 179.699 58.4133 179.914 58.572C180.129 58.7307 180.404 58.81 180.74 58.81C181.253 58.81 181.687 58.6653 182.042 58.376C182.397 58.0773 182.574 57.6387 182.574 57.06V56.416L181.65 56.444ZM190.51 52.272C190.622 52.272 190.753 52.2767 190.902 52.286C191.052 52.2953 191.178 52.314 191.28 52.342L191.126 53.98C191.042 53.9613 190.93 53.9473 190.79 53.938C190.66 53.9193 190.543 53.91 190.44 53.91C190.16 53.91 189.89 53.9567 189.628 54.05C189.376 54.134 189.148 54.2647 188.942 54.442C188.746 54.61 188.588 54.8293 188.466 55.1C188.354 55.3707 188.298 55.6927 188.298 56.066V60H186.534V52.412H187.892L188.144 53.728H188.228C188.378 53.4573 188.564 53.2147 188.788 53C189.012 52.776 189.269 52.5987 189.558 52.468C189.857 52.3373 190.174 52.272 190.51 52.272ZM195.437 52.272C196.417 52.272 197.159 52.4867 197.663 52.916C198.177 53.336 198.433 53.9987 198.433 54.904V60H197.187L196.837 58.95H196.781C196.567 59.2207 196.343 59.4493 196.109 59.636C195.885 59.8133 195.624 59.9393 195.325 60.014C195.036 60.098 194.681 60.14 194.261 60.14C193.813 60.14 193.407 60.056 193.043 59.888C192.689 59.72 192.409 59.4633 192.203 59.118C191.998 58.7633 191.895 58.32 191.895 57.788C191.895 57.004 192.18 56.416 192.749 56.024C193.328 55.6227 194.201 55.4033 195.367 55.366L196.683 55.324V54.946C196.683 54.4607 196.567 54.1153 196.333 53.91C196.1 53.7047 195.773 53.602 195.353 53.602C194.971 53.602 194.602 53.658 194.247 53.77C193.893 53.882 193.547 54.0127 193.211 54.162L192.651 52.93C193.025 52.734 193.449 52.5753 193.925 52.454C194.411 52.3327 194.915 52.272 195.437 52.272ZM195.759 56.444C194.985 56.472 194.448 56.6073 194.149 56.85C193.851 57.0833 193.701 57.4007 193.701 57.802C193.701 58.1567 193.809 58.4133 194.023 58.572C194.238 58.7307 194.513 58.81 194.849 58.81C195.363 58.81 195.797 58.6653 196.151 58.376C196.506 58.0773 196.683 57.6387 196.683 57.06V56.416L195.759 56.444ZM204.704 52.272C205.553 52.272 206.216 52.4913 206.692 52.93C207.177 53.3687 207.42 54.078 207.42 55.058V60H205.656V55.408C205.656 54.8387 205.544 54.414 205.32 54.134C205.096 53.8447 204.741 53.7 204.256 53.7C203.546 53.7 203.061 53.924 202.8 54.372C202.538 54.8107 202.408 55.45 202.408 56.29V60H200.644V52.412H202.002L202.254 53.406H202.352C202.52 53.1447 202.725 52.93 202.968 52.762C203.21 52.594 203.481 52.4727 203.78 52.398C204.078 52.314 204.386 52.272 204.704 52.272ZM212.566 58.726C212.79 58.726 213.005 58.7073 213.21 58.67C213.416 58.6233 213.607 58.572 213.784 58.516V59.832C213.598 59.916 213.355 59.986 213.056 60.042C212.758 60.1073 212.445 60.14 212.118 60.14C211.689 60.14 211.297 60.07 210.942 59.93C210.597 59.7807 210.317 59.5287 210.102 59.174C209.897 58.8193 209.794 58.3247 209.794 57.69V53.742H208.772V52.972L209.892 52.356L210.452 50.746H211.558V52.412H213.714V53.742H211.558V57.676C211.558 58.0307 211.652 58.2967 211.838 58.474C212.025 58.642 212.268 58.726 212.566 58.726ZM218.366 52.272C219.047 52.272 219.63 52.412 220.116 52.692C220.61 52.9627 220.993 53.3547 221.264 53.868C221.534 54.372 221.67 54.988 221.67 55.716V56.612H216.658C216.676 57.3027 216.868 57.8393 217.232 58.222C217.596 58.5953 218.1 58.782 218.744 58.782C219.238 58.782 219.677 58.7353 220.06 58.642C220.452 58.5393 220.853 58.3947 221.264 58.208V59.622C220.89 59.7993 220.503 59.93 220.102 60.014C219.7 60.098 219.22 60.14 218.66 60.14C217.922 60.14 217.264 60 216.686 59.72C216.116 59.4307 215.668 58.9967 215.342 58.418C215.024 57.8393 214.866 57.1207 214.866 56.262C214.866 55.394 215.01 54.666 215.3 54.078C215.598 53.4807 216.009 53.0327 216.532 52.734C217.054 52.426 217.666 52.272 218.366 52.272ZM218.366 53.574C217.899 53.574 217.516 53.728 217.218 54.036C216.928 54.3347 216.756 54.7827 216.7 55.38H219.962C219.962 55.0253 219.901 54.7127 219.78 54.442C219.668 54.1713 219.495 53.9613 219.262 53.812C219.028 53.6533 218.73 53.574 218.366 53.574ZM226.5 52.272C227.182 52.272 227.765 52.412 228.25 52.692C228.745 52.9627 229.128 53.3547 229.398 53.868C229.669 54.372 229.804 54.988 229.804 55.716V56.612H224.792C224.811 57.3027 225.002 57.8393 225.366 58.222C225.73 58.5953 226.234 58.782 226.878 58.782C227.373 58.782 227.812 58.7353 228.194 58.642C228.586 58.5393 228.988 58.3947 229.398 58.208V59.622C229.025 59.7993 228.638 59.93 228.236 60.014C227.835 60.098 227.354 60.14 226.794 60.14C226.057 60.14 225.399 60 224.82 59.72C224.251 59.4307 223.803 58.9967 223.476 58.418C223.159 57.8393 223 57.1207 223 56.262C223 55.394 223.145 54.666 223.434 54.078C223.733 53.4807 224.144 53.0327 224.666 52.734C225.189 52.426 225.8 52.272 226.5 52.272ZM226.5 53.574C226.034 53.574 225.651 53.728 225.352 54.036C225.063 54.3347 224.89 54.7827 224.834 55.38H228.096C228.096 55.0253 228.036 54.7127 227.914 54.442C227.802 54.1713 227.63 53.9613 227.396 53.812C227.163 53.6533 226.864 53.574 226.5 53.574ZM233.081 56.878H231.737L231.387 50.004H233.431L233.081 56.878ZM231.331 59.104C231.331 58.712 231.434 58.4367 231.639 58.278C231.845 58.11 232.101 58.026 232.409 58.026C232.699 58.026 232.946 58.1053 233.151 58.264C233.366 58.4227 233.473 58.7027 233.473 59.104C233.473 59.4867 233.366 59.762 233.151 59.93C232.946 60.098 232.699 60.182 232.409 60.182C232.101 60.182 231.845 60.098 231.639 59.93C231.434 59.762 231.331 59.4867 231.331 59.104ZM237.005 56.878H235.661L235.311 50.004H237.355L237.005 56.878ZM235.255 59.104C235.255 58.712 235.358 58.4367 235.563 58.278C235.768 58.11 236.025 58.026 236.333 58.026C236.622 58.026 236.87 58.1053 237.075 58.264C237.29 58.4227 237.397 58.7027 237.397 59.104C237.397 59.4867 237.29 59.762 237.075 59.93C236.87 60.098 236.622 60.182 236.333 60.182C236.025 60.182 235.768 60.098 235.563 59.93C235.358 59.762 235.255 59.4867 235.255 59.104Z" fill="#6E6E6E"/>
<path d="M53.4963 41.424H64L51.4484 29V39.5037C51.4484 40.5489 52.4515 41.424 53.4967 41.424H53.4963Z" fill="#24D8A9"/>
<path d="M51.5341 65.8654L52.0837 65.9826C52.4465 66.0626 52.8093 65.8494 52.9213 65.497L53.0921 64.9634C53.1613 64.7446 53.3373 64.5686 53.5561 64.4994L54.0896 64.3286C54.4416 64.2166 54.6552 63.8538 54.5752 63.491L54.458 62.9415C54.41 62.7123 54.474 62.4775 54.6288 62.3067L55.0076 61.8907C55.2584 61.6135 55.2584 61.1971 55.0076 60.92L54.6288 60.504C54.474 60.3332 54.41 60.0932 54.458 59.8692L54.5752 59.3196C54.6552 58.9568 54.442 58.594 54.0896 58.482L53.5561 58.3113C53.3373 58.242 53.1613 58.066 53.0921 57.8473L52.9213 57.3137C52.8093 56.9617 52.4465 56.7481 52.0837 56.8281L51.5341 56.9453C51.3049 56.9933 51.0701 56.9293 50.8993 56.7745L50.4833 56.3957C50.2061 56.1449 49.7898 56.1449 49.5126 56.3957L49.0966 56.7745C48.9258 56.9293 48.6858 56.9933 48.4618 56.9453L47.9123 56.8281C47.5495 56.7481 47.1867 56.9613 47.0747 57.3137L46.9039 57.8473C46.8347 58.066 46.6587 58.242 46.4399 58.3113L45.9063 58.482C45.5543 58.594 45.3408 58.9568 45.4208 59.3196L45.538 59.8692C45.586 60.0984 45.522 60.3332 45.3672 60.504L44.9884 60.92C44.7376 61.1972 44.7376 61.6135 44.9884 61.8907L45.3672 62.3067C45.522 62.4775 45.586 62.7175 45.538 62.9415L45.4208 63.491C45.3408 63.8538 45.554 64.2166 45.9063 64.3286L46.4399 64.4994C46.6587 64.5686 46.8347 64.7446 46.9039 64.9634L47.0747 65.497C47.1867 65.849 47.5495 66.0626 47.9123 65.9826L48.4618 65.8654C48.691 65.8174 48.9258 65.8814 49.0966 66.0361L49.5126 66.4149C49.7898 66.6657 50.2062 66.6657 50.4833 66.4149L50.8993 66.0361C51.0701 65.8814 51.3101 65.8174 51.5341 65.8654ZM49.9978 65.3106C48.9522 65.3106 47.9707 64.905 47.2346 64.1638C46.4986 63.4278 46.0879 62.4463 46.0879 61.4007C46.0879 60.3551 46.4934 59.3736 47.2346 58.6375C47.9706 57.9015 48.9522 57.4908 49.9978 57.4908C51.0434 57.4908 52.0249 57.8963 52.7609 58.6375C53.4969 59.3735 53.9077 60.3551 53.9077 61.4007C53.9077 62.4463 53.5021 63.4278 52.7609 64.1638C52.0249 64.8998 51.0434 65.3106 49.9978 65.3106Z" fill="#24D8A9"/>
<path d="M48.7279 66.4407C48.6959 66.4087 48.6531 66.3927 48.6107 66.3927C48.5999 66.3927 48.5839 66.3927 48.5735 66.3979L48.024 66.5151C47.9387 66.5363 47.8479 66.5419 47.7572 66.5419C47.2716 66.5419 46.8344 66.2647 46.6208 65.8431L44.8392 70.7398L46.6208 69.8382L47.4051 71.6738L49.1654 66.8355C49.1602 66.8303 49.1546 66.8247 49.1442 66.8195L48.7279 66.4407Z" fill="#24D8A9"/>
<path d="M52.2381 66.5531C52.1473 66.5531 52.0569 66.5423 51.9713 66.5211L51.4217 66.4039C51.4109 66.4039 51.3949 66.3987 51.3845 66.3987C51.3417 66.3987 51.2993 66.4147 51.2673 66.4467L50.8513 66.8255C50.8461 66.8307 50.8405 66.8363 50.8301 66.8415L52.5904 71.6797L53.3744 69.8446L55.1559 70.7461L53.3744 65.8546C53.1608 66.2758 52.7236 66.553 52.238 66.553L52.2381 66.5531Z" fill="#24D8A9"/>
<path d="M49.9976 57.8525C48.0401 57.8525 46.4506 59.4421 46.4506 61.3996C46.4506 63.3571 48.0402 64.9467 49.9976 64.9467C51.9551 64.9467 53.5447 63.3571 53.5447 61.3996C53.5447 59.4424 51.9551 57.8525 49.9976 57.8525ZM51.9712 60.6744L49.6881 62.9576C49.4589 63.1868 49.0853 63.1868 48.8561 62.9576L48.0241 62.1256C47.7949 61.8964 47.7949 61.5228 48.0241 61.2936C48.2533 61.0644 48.6269 61.0644 48.8561 61.2936L49.2721 61.7096L51.1392 59.8424C51.3685 59.6132 51.742 59.6132 51.9712 59.8424C52.2008 60.0716 52.2008 60.4452 51.9712 60.6744L51.9712 60.6744Z" fill="#24D8A9"/>
<path d="M50.6054 39.5037V29.0648H38.0003C36.9496 29.0648 36 29.8755 36 30.9263V64.2977C36 65.3485 36.9496 66.1489 38.0003 66.1489H45.8577L46.2417 65.0873L45.7081 64.9165C45.0521 64.7033 44.6625 64.0365 44.8065 63.3589L44.9237 62.8093C44.929 62.7773 44.9237 62.7401 44.897 62.7185L44.5182 62.3026C44.0542 61.7906 44.0542 61.017 44.5182 60.4994L44.897 60.0834C44.9182 60.0566 44.929 60.0246 44.9237 59.9926L44.8065 59.443C44.6625 58.7655 45.0465 58.0987 45.7081 57.8854L46.2417 57.7146C46.2737 57.7039 46.3005 57.6774 46.3109 57.6454L46.4817 57.1119C46.6629 56.5571 47.1752 56.1839 47.7565 56.1839C47.8525 56.1839 47.9485 56.1947 48.0393 56.2159L48.5888 56.3331H48.61C48.6368 56.3331 48.658 56.3223 48.6792 56.3063L49.0952 55.9275C49.3404 55.7035 49.6608 55.5807 49.9968 55.5807C50.3276 55.5807 50.6476 55.7035 50.8984 55.9275L51.3144 56.3063C51.3356 56.3223 51.3571 56.3331 51.3836 56.3331H51.4048L51.9547 56.2058C52.0455 56.1846 52.1415 56.1738 52.2375 56.1738C52.8243 56.1738 53.3363 56.5474 53.5123 57.1018L53.6831 57.6354C53.6939 57.6674 53.7203 57.6942 53.7523 57.7046L54.2859 57.8754C54.9419 58.0886 55.3315 58.7554 55.1874 59.433L55.0702 59.9826C55.065 60.0146 55.0702 60.0518 55.097 60.0734L55.4758 60.4894C55.9398 61.0013 55.9398 61.7749 55.4758 62.2925L55.097 62.7085C55.0758 62.7353 55.065 62.7673 55.0702 62.7993L55.1874 63.3489C55.3314 64.0264 54.9474 64.6932 54.2859 64.9065L53.7523 65.0773L54.1363 66.1389H62.0684C63.1192 66.1389 63.946 65.3389 63.946 64.2877L63.9463 42.4116H53.5017C51.9333 42.4116 50.605 41.0672 50.605 39.5044L50.6054 39.5037ZM39.9959 32.9479H47.1333C47.5601 32.9479 47.9069 33.2947 47.9069 33.7215C47.9069 34.1483 47.5601 34.495 47.1333 34.495L39.9959 34.4947C39.5691 34.4947 39.2224 34.1479 39.2224 33.7211C39.2224 33.2943 39.5691 32.9479 39.9959 32.9479V32.9479ZM39.9959 37.5886H47.1333C47.5601 37.5886 47.9069 37.9354 47.9069 38.3622C47.9069 38.789 47.5601 39.1357 47.1333 39.1357L39.9959 39.1354C39.5691 39.1354 39.2224 38.7886 39.2224 38.3618C39.2224 37.9354 39.5691 37.5886 39.9959 37.5886V37.5886ZM39.9959 42.2348H47.1333C47.5601 42.2348 47.9069 42.5816 47.9069 43.0084C47.9069 43.4352 47.5601 43.782 47.1333 43.782L39.9959 43.7816C39.5691 43.7816 39.2224 43.4348 39.2224 43.008C39.2224 42.5812 39.5691 42.2348 39.9959 42.2348V42.2348ZM60.106 53.0843H39.9692C39.5425 53.0843 39.1957 52.7375 39.1957 52.3107C39.1957 51.8839 39.5425 51.5372 39.9692 51.5372H60.106C60.5328 51.5372 60.8796 51.8839 60.8796 52.3107C60.8796 52.7431 60.5332 53.0843 60.1064 53.0843H60.106ZM60.8792 47.6753C60.8792 48.1021 60.5324 48.4488 60.1057 48.4488H39.9689C39.5421 48.4488 39.1953 48.1021 39.1953 47.6753C39.1953 47.2485 39.5421 46.9017 39.9689 46.9017H60.1057C60.5328 46.9021 60.8792 47.2485 60.8792 47.6753V47.6753Z" fill="#24D8A9"/>
</g>
<defs>
<clipPath id="clip0_1_2">
<rect width="300" height="100" fill="white"/>
</clipPath>
</defs>
</svg>
