<svg width="370" height="110" viewBox="0 0 370 110" fill="none" xmlns="http://www.w3.org/2000/svg">
<g clip-path="url(#clip0_1_21)">
<path d="M350 0H20C8.9543 0 0 8.9543 0 20V90C0 101.046 8.9543 110 20 110H350C361.046 110 370 101.046 370 90V20C370 8.9543 361.046 0 350 0Z" fill="white" fill-opacity="0.8"/>
<path d="M64.9285 44.2857H37.0714L51 55.7586L65.086 44.3179C65.0345 44.3028 64.9818 44.2921 64.9285 44.2857Z" fill="white"/>
<path d="M51.676 57.9742C51.2813 58.2975 50.7133 58.2975 50.3186 57.9742L36 46.1778V64.6428C36 65.2346 36.4797 65.7143 37.0714 65.7143H64.9285C65.5203 65.7143 66 65.2346 66 64.6428V46.3364L51.676 57.9742Z" fill="white"/>
<path d="M57.4702 31H50.5254C49.8489 31 49.3009 31.5483 49.3009 32.2244V38.9589H45.0837C44.6006 38.9589 44.1626 39.2431 43.9658 39.6845C43.7691 40.1259 43.85 40.6418 44.1729 41.0013L53.0868 50.9682C53.325 51.2176 53.655 51.3587 54 51.3587C54.3451 51.3587 54.6751 51.2176 54.9135 50.9682L63.8275 41.0013H63.8271C64.15 40.6419 64.2313 40.126 64.0342 39.6845C63.8374 39.2431 63.3994 38.9589 62.9164 38.9589H58.6944V32.2149C58.6889 31.5422 58.1423 31 57.4699 31H57.4702ZM60.1788 41.4174L53.9978 48.3135L47.8216 41.4075H50.5302C50.8551 41.4075 51.1663 41.2787 51.3959 41.0488C51.6258 40.8192 51.7546 40.508 51.7546 40.1831V33.4486H56.2506L56.2509 40.1831C56.2509 40.508 56.3798 40.8192 56.6093 41.0488C56.8389 41.2787 57.1505 41.4075 57.4754 41.4075L60.1788 41.4174Z" fill="#4D5EFF"/>
<path d="M71.5663 54.6266C71.3432 54.2676 70.9506 54.0493 70.528 54.0486H37.4724C37.0498 54.0493 36.6572 54.2676 36.4341 54.6266L30.1845 64.6627C29.9501 65.0399 29.9382 65.5148 30.1537 65.9033C30.3693 66.2917 30.7786 66.5329 31.2231 66.5336H36.6108L36.6105 74.2376C36.6146 75.2404 37.0147 76.2003 37.7239 76.9089C38.4335 77.6172 39.3942 78.0162 40.3966 78.0189H67.5985C68.6036 78.0175 69.5671 77.6178 70.2777 76.9072C70.9883 76.1966 71.388 75.2327 71.3894 74.228V66.5335H76.7771C77.2212 66.5328 77.6305 66.2916 77.8461 65.9032C78.0617 65.5147 78.0501 65.0398 77.8154 64.6626L71.5663 54.6266ZM33.4274 64.0846L38.1489 56.4981L51.7945 56.4978L47.0682 64.0846L33.4274 64.0846ZM52.7737 75.5699H40.3971C40.0412 75.5699 39.6998 75.4285 39.448 75.1767C39.1966 74.9252 39.0551 74.5839 39.0551 74.2279V66.5334H47.7485C48.1711 66.5327 48.5637 66.3144 48.7868 65.9553L52.7737 59.5588L52.7737 75.5699ZM68.9363 74.2279C68.9363 74.5829 68.7956 74.9235 68.5448 75.1749C68.2944 75.4264 67.9541 75.5685 67.5992 75.5699H55.2227V59.5585L59.2045 65.9598V65.9602C59.4276 66.3189 59.8201 66.5375 60.2427 66.5379H68.9365L68.9363 74.2279ZM60.9283 64.0843L56.202 56.4974H69.8423L74.5686 64.0843H60.9283Z" fill="#4D5EFF"/>
<path d="M40.1619 40.4581C40.1619 40.1332 40.0328 39.8219 39.8032 39.5923C39.5736 39.3628 39.262 39.2336 38.9375 39.2336H36.1948C35.5183 39.2336 34.9703 39.7819 34.9703 40.4581C34.9703 41.1342 35.5183 41.6825 36.1948 41.6825H38.9375C39.262 41.6825 39.5736 41.5534 39.8032 41.3238C40.0328 41.0942 40.1619 40.783 40.1619 40.4581V40.4581Z" fill="#4D5EFF"/>
<path d="M42.1604 33.9095L40.2011 31.9502C39.7225 31.4715 38.9462 31.4715 38.4676 31.9502C37.9887 32.4292 37.9887 33.2054 38.4676 33.684L40.4266 35.6429V35.6433C40.9052 36.1219 41.6815 36.1219 42.1604 35.6433C42.639 35.1643 42.639 34.388 42.1604 33.9094V33.9095Z" fill="#4D5EFF"/>
<path d="M40.2205 48.9452L42.1794 46.9863C42.6584 46.5073 42.6584 45.731 42.1794 45.2524C41.7008 44.7738 40.9246 44.7738 40.4456 45.2524L38.4867 47.2114C38.0077 47.6904 38.0077 48.4666 38.4867 48.9452C38.9653 49.4242 39.7416 49.4242 40.2205 48.9452Z" fill="#4D5EFF"/>
<path d="M73.026 40.4581C73.026 40.1332 72.8972 39.8219 72.6676 39.5923C72.4381 39.3628 72.1265 39.2336 71.8016 39.2336H69.0589C68.3828 39.2336 67.8345 39.7819 67.8345 40.4581C67.8345 41.1342 68.3828 41.6825 69.0589 41.6825H71.8016C72.1265 41.6825 72.4381 41.5534 72.6676 41.3238C72.8972 41.0942 73.026 40.783 73.026 40.4581V40.4581Z" fill="#4D5EFF"/>
<path d="M65.8359 47.0062L67.7952 48.9655C68.2738 49.4441 69.0501 49.4441 69.5287 48.9655C70.0077 48.4865 70.0077 47.7103 69.5287 47.2317L67.5697 45.2727V45.2724C67.0911 44.7938 66.3148 44.7938 65.8359 45.2724C65.3573 45.7514 65.3573 46.5276 65.8359 47.0062V47.0062Z" fill="#4D5EFF"/>
<path d="M67.5702 35.6433L69.5291 33.6843V33.684C69.7765 33.4561 69.9186 33.1364 69.923 32.8002C69.9275 32.4641 69.7932 32.1408 69.5524 31.9065C69.3112 31.6721 68.9842 31.547 68.6484 31.5611C68.3122 31.5747 67.9969 31.7264 67.7758 31.9796L65.8169 33.9385V33.9389C65.3379 34.4175 65.3379 35.1937 65.8169 35.6727C66.2955 36.1513 67.0718 36.1513 67.5507 35.6727L67.5702 35.6433Z" fill="#4D5EFF"/>
<path d="M113.94 32.68C113.287 32.68 112.707 32.8 112.2 33.04C111.693 33.28 111.26 33.6267 110.9 34.08C110.553 34.5333 110.287 35.08 110.1 35.72C109.927 36.36 109.84 37.08 109.84 37.88C109.84 38.96 109.987 39.8867 110.28 40.66C110.573 41.42 111.02 42.0067 111.62 42.42C112.233 42.8333 113 43.04 113.92 43.04C114.533 43.04 115.12 42.98 115.68 42.86C116.253 42.7267 116.853 42.5533 117.48 42.34V44.52C116.893 44.76 116.3 44.9333 115.7 45.04C115.113 45.1467 114.433 45.2 113.66 45.2C112.193 45.2 110.98 44.9 110.02 44.3C109.06 43.6867 108.347 42.8333 107.88 41.74C107.413 40.6333 107.18 39.34 107.18 37.86C107.18 36.78 107.327 35.7933 107.62 34.9C107.927 34.0067 108.36 33.2333 108.92 32.58C109.493 31.9267 110.2 31.42 111.04 31.06C111.88 30.7 112.847 30.52 113.94 30.52C114.66 30.52 115.367 30.6067 116.06 30.78C116.767 30.94 117.427 31.1667 118.04 31.46L117.16 33.56C116.653 33.3333 116.127 33.1333 115.58 32.96C115.047 32.7733 114.5 32.68 113.94 32.68ZM129.935 34.16V45H127.955L127.615 43.6H127.495C127.269 43.9733 126.975 44.28 126.615 44.52C126.255 44.7467 125.862 44.9133 125.435 45.02C125.009 45.14 124.569 45.2 124.115 45.2C123.315 45.2 122.622 45.06 122.035 44.78C121.449 44.5 121.002 44.0733 120.695 43.5C120.389 42.9133 120.235 42.16 120.235 41.24V34.16H122.755V40.74C122.755 41.54 122.915 42.1467 123.235 42.56C123.555 42.96 124.062 43.16 124.755 43.16C125.435 43.16 125.969 43.02 126.355 42.74C126.742 42.4467 127.015 42.0267 127.175 41.48C127.335 40.9333 127.415 40.26 127.415 39.46V34.16H129.935ZM140.527 41.86C140.527 42.58 140.354 43.1933 140.007 43.7C139.661 44.1933 139.147 44.5667 138.467 44.82C137.801 45.0733 136.981 45.2 136.007 45.2C135.247 45.2 134.594 45.1467 134.047 45.04C133.501 44.9333 132.981 44.7667 132.487 44.54V42.4C133.021 42.6533 133.614 42.8667 134.267 43.04C134.921 43.2133 135.527 43.3 136.087 43.3C136.781 43.3 137.281 43.1933 137.587 42.98C137.894 42.7667 138.047 42.48 138.047 42.12C138.047 41.9067 137.987 41.7133 137.867 41.54C137.747 41.3667 137.514 41.1867 137.167 41C136.821 40.8 136.294 40.5533 135.587 40.26C134.894 39.98 134.314 39.7 133.847 39.42C133.394 39.14 133.047 38.8067 132.807 38.42C132.581 38.02 132.467 37.52 132.467 36.92C132.467 35.9467 132.854 35.2133 133.627 34.72C134.401 34.2133 135.421 33.96 136.687 33.96C137.354 33.96 137.981 34.0267 138.567 34.16C139.167 34.28 139.767 34.48 140.367 34.76L139.567 36.62C139.234 36.4733 138.901 36.3467 138.567 36.24C138.247 36.12 137.921 36.0267 137.587 35.96C137.267 35.8933 136.941 35.86 136.607 35.86C136.061 35.86 135.647 35.9467 135.367 36.12C135.087 36.28 134.947 36.5067 134.947 36.8C134.947 37.0267 135.014 37.2267 135.147 37.4C135.294 37.56 135.541 37.7267 135.887 37.9C136.247 38.06 136.754 38.2733 137.407 38.54C138.061 38.7933 138.614 39.06 139.067 39.34C139.534 39.6067 139.894 39.94 140.147 40.34C140.401 40.74 140.527 41.2467 140.527 41.86ZM147.152 43.18C147.472 43.18 147.779 43.1533 148.072 43.1C148.365 43.0333 148.639 42.96 148.892 42.88V44.76C148.625 44.88 148.279 44.98 147.852 45.06C147.425 45.1533 146.979 45.2 146.512 45.2C145.899 45.2 145.339 45.1 144.832 44.9C144.339 44.6867 143.939 44.3267 143.632 43.82C143.339 43.3133 143.192 42.6067 143.192 41.7V36.06H141.732V34.96L143.332 34.08L144.132 31.78H145.712V34.16H148.792V36.06H145.712V41.68C145.712 42.1867 145.845 42.5667 146.112 42.82C146.379 43.06 146.725 43.18 147.152 43.18ZM160.757 39.56C160.757 40.4667 160.637 41.2667 160.397 41.96C160.157 42.6533 159.81 43.2467 159.357 43.74C158.917 44.22 158.37 44.5867 157.717 44.84C157.077 45.08 156.364 45.2 155.577 45.2C154.83 45.2 154.144 45.08 153.517 44.84C152.89 44.5867 152.344 44.22 151.877 43.74C151.424 43.2467 151.07 42.6533 150.817 41.96C150.564 41.2667 150.437 40.4667 150.437 39.56C150.437 38.36 150.644 37.3467 151.057 36.52C151.47 35.68 152.064 35.0467 152.837 34.62C153.624 34.18 154.55 33.96 155.617 33.96C156.63 33.96 157.517 34.18 158.277 34.62C159.05 35.0467 159.657 35.68 160.097 36.52C160.537 37.3467 160.757 38.36 160.757 39.56ZM153.017 39.56C153.017 40.32 153.104 40.9733 153.277 41.52C153.464 42.0533 153.744 42.46 154.117 42.74C154.504 43.02 154.997 43.16 155.597 43.16C156.21 43.16 156.704 43.02 157.077 42.74C157.464 42.46 157.744 42.0533 157.917 41.52C158.09 40.9733 158.177 40.32 158.177 39.56C158.177 38.7867 158.084 38.14 157.897 37.62C157.724 37.0867 157.444 36.6867 157.057 36.42C156.684 36.14 156.197 36 155.597 36C154.69 36 154.03 36.3067 153.617 36.92C153.217 37.5333 153.017 38.4133 153.017 39.56ZM175.782 33.96C177.009 33.96 177.929 34.2733 178.542 34.9C179.169 35.5267 179.482 36.54 179.482 37.94V45H176.962V38.42C176.962 37.62 176.816 37.02 176.522 36.62C176.229 36.2067 175.762 36 175.122 36C174.242 36 173.616 36.2867 173.242 36.86C172.869 37.4333 172.682 38.2667 172.682 39.36V45H170.162V38.42C170.162 37.8867 170.096 37.44 169.962 37.08C169.829 36.72 169.622 36.4533 169.342 36.28C169.076 36.0933 168.729 36 168.302 36C167.702 36 167.222 36.1467 166.862 36.44C166.502 36.72 166.249 37.1333 166.102 37.68C165.956 38.2267 165.882 38.9 165.882 39.7V45H163.362V34.16H165.302L165.662 35.58H165.802C166.029 35.2067 166.302 34.9 166.622 34.66C166.956 34.42 167.322 34.2467 167.722 34.14C168.136 34.02 168.549 33.96 168.962 33.96C169.776 33.96 170.462 34.1 171.022 34.38C171.582 34.6467 172.002 35.0667 172.282 35.64H172.482C172.816 35.0533 173.282 34.6267 173.882 34.36C174.496 34.0933 175.129 33.96 175.782 33.96ZM192.335 30.72C194.188 30.72 195.535 31.1067 196.375 31.88C197.228 32.6533 197.655 33.72 197.655 35.08C197.655 35.6933 197.562 36.28 197.375 36.84C197.188 37.3867 196.875 37.88 196.435 38.32C195.995 38.76 195.415 39.1067 194.695 39.36C193.988 39.6133 193.108 39.74 192.055 39.74H190.635V45H188.075V30.72H192.335ZM192.175 32.84H190.635V37.62H191.795C192.488 37.62 193.075 37.54 193.555 37.38C194.048 37.2067 194.422 36.94 194.675 36.58C194.928 36.22 195.055 35.7533 195.055 35.18C195.055 34.3933 194.822 33.8067 194.355 33.42C193.888 33.0333 193.162 32.84 192.175 32.84ZM204.538 33.96C205.938 33.96 206.998 34.2667 207.718 34.88C208.451 35.48 208.818 36.4267 208.818 37.72V45H207.038L206.538 43.5H206.458C206.151 43.8867 205.831 44.2133 205.498 44.48C205.178 44.7333 204.804 44.9133 204.378 45.02C203.964 45.14 203.458 45.2 202.858 45.2C202.218 45.2 201.638 45.08 201.118 44.84C200.611 44.6 200.211 44.2333 199.918 43.74C199.624 43.2333 199.478 42.6 199.478 41.84C199.478 40.72 199.884 39.88 200.698 39.32C201.524 38.7467 202.771 38.4333 204.438 38.38L206.318 38.32V37.78C206.318 37.0867 206.151 36.5933 205.818 36.3C205.484 36.0067 205.018 35.86 204.418 35.86C203.871 35.86 203.344 35.94 202.838 36.1C202.331 36.26 201.838 36.4467 201.358 36.66L200.558 34.9C201.091 34.62 201.698 34.3933 202.378 34.22C203.071 34.0467 203.791 33.96 204.538 33.96ZM204.998 39.92C203.891 39.96 203.124 40.1533 202.698 40.5C202.271 40.8333 202.058 41.2867 202.058 41.86C202.058 42.3667 202.211 42.7333 202.518 42.96C202.824 43.1867 203.218 43.3 203.698 43.3C204.431 43.3 205.051 43.0933 205.558 42.68C206.064 42.2533 206.318 41.6267 206.318 40.8V39.88L204.998 39.92ZM216.355 45.2C215.329 45.2 214.435 45.0067 213.675 44.62C212.929 44.22 212.349 43.6133 211.935 42.8C211.535 41.9733 211.335 40.92 211.335 39.64C211.335 38.3067 211.555 37.2267 211.995 36.4C212.449 35.56 213.069 34.9467 213.855 34.56C214.642 34.16 215.542 33.96 216.555 33.96C217.235 33.96 217.842 34.0267 218.375 34.16C218.909 34.2933 219.362 34.4533 219.735 34.64L218.995 36.62C218.582 36.46 218.169 36.3267 217.755 36.22C217.342 36.1 216.942 36.04 216.555 36.04C215.955 36.04 215.455 36.1733 215.055 36.44C214.669 36.7067 214.382 37.1067 214.195 37.64C214.009 38.16 213.915 38.82 213.915 39.62C213.915 40.3933 214.009 41.04 214.195 41.56C214.395 42.08 214.689 42.4733 215.075 42.74C215.462 42.9933 215.942 43.12 216.515 43.12C217.129 43.12 217.669 43.0467 218.135 42.9C218.602 42.7533 219.042 42.5533 219.455 42.3V44.48C219.042 44.7333 218.595 44.9133 218.115 45.02C217.649 45.14 217.062 45.2 216.355 45.2ZM224.495 37.02C224.495 37.3667 224.482 37.7333 224.455 38.12C224.428 38.4933 224.402 38.86 224.375 39.22H224.435C224.542 39.06 224.668 38.8867 224.815 38.7C224.962 38.5 225.108 38.3067 225.255 38.12C225.415 37.92 225.568 37.74 225.715 37.58L228.915 34.16H231.775L227.435 38.84L232.055 45H229.115L225.755 40.36L224.495 41.4V45H221.995V29.8H224.495V37.02ZM238.073 33.96C239.473 33.96 240.533 34.2667 241.253 34.88C241.986 35.48 242.353 36.4267 242.353 37.72V45H240.573L240.073 43.5H239.993C239.686 43.8867 239.366 44.2133 239.033 44.48C238.713 44.7333 238.339 44.9133 237.913 45.02C237.499 45.14 236.993 45.2 236.393 45.2C235.753 45.2 235.173 45.08 234.653 44.84C234.146 44.6 233.746 44.2333 233.453 43.74C233.159 43.2333 233.013 42.6 233.013 41.84C233.013 40.72 233.419 39.88 234.233 39.32C235.059 38.7467 236.306 38.4333 237.973 38.38L239.853 38.32V37.78C239.853 37.0867 239.686 36.5933 239.353 36.3C239.019 36.0067 238.553 35.86 237.953 35.86C237.406 35.86 236.879 35.94 236.373 36.1C235.866 36.26 235.373 36.4467 234.893 36.66L234.093 34.9C234.626 34.62 235.233 34.3933 235.913 34.22C236.606 34.0467 237.326 33.96 238.073 33.96ZM238.533 39.92C237.426 39.96 236.659 40.1533 236.233 40.5C235.806 40.8333 235.593 41.2867 235.593 41.86C235.593 42.3667 235.746 42.7333 236.053 42.96C236.359 43.1867 236.753 43.3 237.233 43.3C237.966 43.3 238.586 43.0933 239.093 42.68C239.599 42.2533 239.853 41.6267 239.853 40.8V39.88L238.533 39.92ZM249.151 33.96C249.831 33.96 250.444 34.0933 250.991 34.36C251.537 34.6267 251.997 35.0267 252.371 35.56H252.471L252.711 34.16H254.811V45.08C254.811 46.1067 254.617 46.9667 254.231 47.66C253.844 48.3667 253.264 48.9 252.491 49.26C251.717 49.62 250.751 49.8 249.591 49.8C248.817 49.8 248.104 49.7467 247.451 49.64C246.797 49.5467 246.177 49.38 245.591 49.14V47.06C246.004 47.2333 246.431 47.38 246.871 47.5C247.324 47.6333 247.791 47.7333 248.271 47.8C248.751 47.8667 249.244 47.9 249.751 47.9C250.577 47.9 251.204 47.6667 251.631 47.2C252.071 46.7333 252.291 46.0667 252.291 45.2V44.92C252.291 44.72 252.297 44.4867 252.311 44.22C252.337 43.9533 252.357 43.74 252.371 43.58H252.291C251.917 44.14 251.464 44.5533 250.931 44.82C250.397 45.0733 249.784 45.2 249.091 45.2C247.771 45.2 246.737 44.7067 245.991 43.72C245.244 42.7333 244.871 41.36 244.871 39.6C244.871 38.4133 245.037 37.4 245.371 36.56C245.717 35.72 246.211 35.08 246.851 34.64C247.491 34.1867 248.257 33.96 249.151 33.96ZM249.811 36.02C249.304 36.02 248.871 36.16 248.511 36.44C248.164 36.7067 247.897 37.1067 247.711 37.64C247.537 38.1733 247.451 38.84 247.451 39.64C247.451 40.8133 247.651 41.7 248.051 42.3C248.451 42.9 249.051 43.2 249.851 43.2C250.304 43.2 250.691 43.1467 251.011 43.04C251.331 42.92 251.591 42.7333 251.791 42.48C252.004 42.2133 252.164 41.88 252.271 41.48C252.377 41.0667 252.431 40.5733 252.431 40V39.62C252.431 38.7533 252.337 38.06 252.151 37.54C251.964 37.0067 251.677 36.62 251.291 36.38C250.917 36.14 250.424 36.02 249.811 36.02ZM260.55 34.16V45H258.03V34.16H260.55ZM259.29 29.98C259.663 29.98 259.99 30.08 260.27 30.28C260.55 30.4667 260.69 30.8067 260.69 31.3C260.69 31.78 260.55 32.1267 260.27 32.34C259.99 32.54 259.663 32.64 259.29 32.64C258.903 32.64 258.57 32.54 258.29 32.34C258.023 32.1267 257.89 31.78 257.89 31.3C257.89 30.8067 258.023 30.4667 258.29 30.28C258.57 30.08 258.903 29.98 259.29 29.98ZM269.572 33.96C270.786 33.96 271.732 34.2733 272.412 34.9C273.106 35.5267 273.452 36.54 273.452 37.94V45H270.932V38.44C270.932 37.6267 270.772 37.02 270.452 36.62C270.132 36.2067 269.626 36 268.932 36C267.919 36 267.226 36.32 266.852 36.96C266.479 37.5867 266.292 38.5 266.292 39.7V45H263.772V34.16H265.712L266.072 35.58H266.212C266.452 35.2067 266.746 34.9 267.092 34.66C267.439 34.42 267.826 34.2467 268.252 34.14C268.679 34.02 269.119 33.96 269.572 33.96ZM280.244 33.96C280.924 33.96 281.538 34.0933 282.084 34.36C282.631 34.6267 283.091 35.0267 283.464 35.56H283.564L283.804 34.16H285.904V45.08C285.904 46.1067 285.711 46.9667 285.324 47.66C284.938 48.3667 284.358 48.9 283.584 49.26C282.811 49.62 281.844 49.8 280.684 49.8C279.911 49.8 279.198 49.7467 278.544 49.64C277.891 49.5467 277.271 49.38 276.684 49.14V47.06C277.098 47.2333 277.524 47.38 277.964 47.5C278.418 47.6333 278.884 47.7333 279.364 47.8C279.844 47.8667 280.338 47.9 280.844 47.9C281.671 47.9 282.298 47.6667 282.724 47.2C283.164 46.7333 283.384 46.0667 283.384 45.2V44.92C283.384 44.72 283.391 44.4867 283.404 44.22C283.431 43.9533 283.451 43.74 283.464 43.58H283.384C283.011 44.14 282.558 44.5533 282.024 44.82C281.491 45.0733 280.878 45.2 280.184 45.2C278.864 45.2 277.831 44.7067 277.084 43.72C276.338 42.7333 275.964 41.36 275.964 39.6C275.964 38.4133 276.131 37.4 276.464 36.56C276.811 35.72 277.304 35.08 277.944 34.64C278.584 34.1867 279.351 33.96 280.244 33.96ZM280.904 36.02C280.398 36.02 279.964 36.16 279.604 36.44C279.258 36.7067 278.991 37.1067 278.804 37.64C278.631 38.1733 278.544 38.84 278.544 39.64C278.544 40.8133 278.744 41.7 279.144 42.3C279.544 42.9 280.144 43.2 280.944 43.2C281.398 43.2 281.784 43.1467 282.104 43.04C282.424 42.92 282.684 42.7333 282.884 42.48C283.098 42.2133 283.258 41.88 283.364 41.48C283.471 41.0667 283.524 40.5733 283.524 40V39.62C283.524 38.7533 283.431 38.06 283.244 37.54C283.058 37.0067 282.771 36.62 282.384 36.38C282.011 36.14 281.518 36.02 280.904 36.02Z" fill="#6E6E6E"/>
<path d="M119.921 58.718L117.451 68H116.268L114.461 61.916C114.409 61.734 114.357 61.5477 114.305 61.357C114.253 61.1663 114.205 60.9843 114.162 60.811C114.119 60.6377 114.08 60.4903 114.045 60.369C114.019 60.239 114.002 60.1437 113.993 60.083C113.984 60.1437 113.967 60.239 113.941 60.369C113.924 60.4903 113.893 60.6377 113.85 60.811C113.807 60.9843 113.759 61.1707 113.707 61.37C113.664 61.5607 113.612 61.7557 113.551 61.955L111.796 68H110.613L108.156 58.718H109.378L110.821 64.386C110.873 64.5853 110.921 64.7847 110.964 64.984C111.007 65.1747 111.046 65.3653 111.081 65.556C111.124 65.738 111.159 65.9157 111.185 66.089C111.211 66.2623 111.237 66.4313 111.263 66.596C111.289 66.4227 111.315 66.245 111.341 66.063C111.376 65.881 111.415 65.6947 111.458 65.504C111.501 65.3047 111.549 65.1053 111.601 64.906C111.653 64.7067 111.705 64.5117 111.757 64.321L113.395 58.718H114.604L116.307 64.36C116.368 64.5593 116.424 64.763 116.476 64.971C116.528 65.1703 116.576 65.3653 116.619 65.556C116.662 65.7467 116.697 65.933 116.723 66.115C116.758 66.2883 116.788 66.4487 116.814 66.596C116.84 66.3793 116.875 66.154 116.918 65.92C116.961 65.6773 117.013 65.426 117.074 65.166C117.135 64.906 117.2 64.6417 117.269 64.373L118.699 58.718H119.921ZM122.335 61.019C122.335 61.1837 122.326 61.3527 122.309 61.526C122.3 61.6993 122.287 61.8553 122.27 61.994H122.348C122.495 61.7513 122.682 61.552 122.907 61.396C123.132 61.24 123.384 61.123 123.661 61.045C123.938 60.9583 124.224 60.915 124.519 60.915C125.082 60.915 125.55 61.006 125.923 61.188C126.304 61.3613 126.59 61.6343 126.781 62.007C126.972 62.3797 127.067 62.865 127.067 63.463V68H125.936V63.541C125.936 62.9777 125.81 62.5573 125.559 62.28C125.308 62.0027 124.913 61.864 124.376 61.864C123.856 61.864 123.449 61.9637 123.154 62.163C122.859 62.3537 122.647 62.6397 122.517 63.021C122.396 63.3937 122.335 63.853 122.335 64.399V68H121.191V58.12H122.335V61.019ZM131.866 60.915C132.715 60.915 133.344 61.1013 133.751 61.474C134.158 61.8467 134.362 62.4403 134.362 63.255V68H133.53L133.309 67.012H133.257C133.058 67.2633 132.85 67.4757 132.633 67.649C132.425 67.8137 132.182 67.935 131.905 68.013C131.636 68.091 131.307 68.13 130.917 68.13C130.501 68.13 130.124 68.0563 129.786 67.909C129.457 67.7617 129.197 67.5363 129.006 67.233C128.815 66.921 128.72 66.531 128.72 66.063C128.72 65.3697 128.993 64.8367 129.539 64.464C130.085 64.0827 130.926 63.8747 132.061 63.84L133.244 63.801V63.385C133.244 62.8043 133.118 62.4013 132.867 62.176C132.616 61.9507 132.26 61.838 131.801 61.838C131.437 61.838 131.09 61.8943 130.761 62.007C130.432 62.111 130.124 62.2323 129.838 62.371L129.487 61.513C129.79 61.3483 130.15 61.2097 130.566 61.097C130.982 60.9757 131.415 60.915 131.866 60.915ZM132.204 64.633C131.337 64.6677 130.735 64.8063 130.397 65.049C130.068 65.2917 129.903 65.634 129.903 66.076C129.903 66.466 130.02 66.752 130.254 66.934C130.497 67.116 130.804 67.207 131.177 67.207C131.766 67.207 132.256 67.0467 132.646 66.726C133.036 66.3967 133.231 65.894 133.231 65.218V64.594L132.204 64.633ZM138.841 67.194C139.015 67.194 139.192 67.181 139.374 67.155C139.556 67.1203 139.704 67.0857 139.816 67.051V67.922C139.695 67.9827 139.522 68.0303 139.296 68.065C139.071 68.1083 138.854 68.13 138.646 68.13C138.282 68.13 137.944 68.0693 137.632 67.948C137.329 67.818 137.082 67.597 136.891 67.285C136.701 66.973 136.605 66.5353 136.605 65.972V61.916H135.617V61.37L136.618 60.915L137.073 59.433H137.749V61.032H139.764V61.916H137.749V65.946C137.749 66.3707 137.849 66.687 138.048 66.895C138.256 67.0943 138.521 67.194 138.841 67.194ZM143.902 60.902C144.5 60.902 145.012 61.032 145.436 61.292C145.87 61.552 146.199 61.9203 146.424 62.397C146.658 62.865 146.775 63.4153 146.775 64.048V64.737H142.004C142.022 65.5257 142.221 66.128 142.602 66.544C142.992 66.9513 143.534 67.155 144.227 67.155C144.669 67.155 145.059 67.116 145.397 67.038C145.744 66.9513 146.099 66.83 146.463 66.674V67.675C146.108 67.831 145.757 67.9437 145.41 68.013C145.064 68.091 144.652 68.13 144.175 68.13C143.517 68.13 142.932 67.9957 142.42 67.727C141.918 67.4583 141.523 67.0597 141.237 66.531C140.96 65.9937 140.821 65.3393 140.821 64.568C140.821 63.8053 140.947 63.151 141.198 62.605C141.458 62.059 141.818 61.6387 142.277 61.344C142.745 61.0493 143.287 60.902 143.902 60.902ZM143.889 61.838C143.343 61.838 142.91 62.0157 142.589 62.371C142.277 62.7177 142.091 63.203 142.03 63.827H145.579C145.579 63.4283 145.519 63.0817 145.397 62.787C145.276 62.4923 145.09 62.2627 144.838 62.098C144.596 61.9247 144.279 61.838 143.889 61.838ZM149.829 68L147.19 61.032H148.412L149.894 65.14C149.964 65.3307 150.037 65.543 150.115 65.777C150.193 66.011 150.263 66.2363 150.323 66.453C150.384 66.661 150.427 66.8387 150.453 66.986H150.505C150.54 66.8387 150.588 66.6567 150.648 66.44C150.718 66.2233 150.791 65.998 150.869 65.764C150.956 65.53 151.03 65.322 151.09 65.14L152.572 61.032H153.794L151.142 68H149.829ZM157.588 60.902C158.186 60.902 158.697 61.032 159.122 61.292C159.555 61.552 159.885 61.9203 160.11 62.397C160.344 62.865 160.461 63.4153 160.461 64.048V64.737H155.69C155.707 65.5257 155.907 66.128 156.288 66.544C156.678 66.9513 157.22 67.155 157.913 67.155C158.355 67.155 158.745 67.116 159.083 67.038C159.43 66.9513 159.785 66.83 160.149 66.674V67.675C159.794 67.831 159.443 67.9437 159.096 68.013C158.749 68.091 158.338 68.13 157.861 68.13C157.202 68.13 156.617 67.9957 156.106 67.727C155.603 67.4583 155.209 67.0597 154.923 66.531C154.646 65.9937 154.507 65.3393 154.507 64.568C154.507 63.8053 154.633 63.151 154.884 62.605C155.144 62.059 155.504 61.6387 155.963 61.344C156.431 61.0493 156.973 60.902 157.588 60.902ZM157.575 61.838C157.029 61.838 156.596 62.0157 156.275 62.371C155.963 62.7177 155.777 63.203 155.716 63.827H159.265C159.265 63.4283 159.204 63.0817 159.083 62.787C158.962 62.4923 158.775 62.2627 158.524 62.098C158.281 61.9247 157.965 61.838 157.575 61.838ZM165.485 60.902C165.615 60.902 165.754 60.9107 165.901 60.928C166.057 60.9367 166.191 60.954 166.304 60.98L166.161 62.033C166.048 62.007 165.923 61.9853 165.784 61.968C165.654 61.9507 165.528 61.942 165.407 61.942C165.138 61.942 164.883 61.9983 164.64 62.111C164.397 62.2237 164.181 62.384 163.99 62.592C163.799 62.7913 163.648 63.034 163.535 63.32C163.431 63.606 163.379 63.9267 163.379 64.282V68H162.235V61.032H163.171L163.301 62.306H163.353C163.5 62.046 163.678 61.812 163.886 61.604C164.094 61.3873 164.332 61.2183 164.601 61.097C164.87 60.967 165.164 60.902 165.485 60.902ZM169.89 61.032H171.112L172.62 64.997C172.707 65.231 172.785 65.4563 172.854 65.673C172.932 65.8897 173.001 66.102 173.062 66.31C173.123 66.5093 173.17 66.7043 173.205 66.895H173.257C173.309 66.6783 173.391 66.3967 173.504 66.05C173.617 65.6947 173.734 65.3393 173.855 64.984L175.272 61.032H176.507L173.504 68.962C173.339 69.3953 173.144 69.7723 172.919 70.093C172.702 70.4223 172.434 70.6737 172.113 70.847C171.801 71.029 171.42 71.12 170.969 71.12C170.761 71.12 170.579 71.107 170.423 71.081C170.267 71.0637 170.133 71.042 170.02 71.016V70.106C170.115 70.1233 170.228 70.1407 170.358 70.158C170.497 70.1753 170.64 70.184 170.787 70.184C171.056 70.184 171.285 70.132 171.476 70.028C171.675 69.9327 171.844 69.7897 171.983 69.599C172.122 69.417 172.239 69.2003 172.334 68.949L172.698 68.026L169.89 61.032ZM183.667 64.503C183.667 65.0837 183.589 65.5993 183.433 66.05C183.286 66.492 183.069 66.869 182.783 67.181C182.506 67.493 182.163 67.7313 181.756 67.896C181.357 68.052 180.911 68.13 180.417 68.13C179.958 68.13 179.533 68.052 179.143 67.896C178.753 67.7313 178.415 67.493 178.129 67.181C177.843 66.869 177.618 66.492 177.453 66.05C177.297 65.5993 177.219 65.0837 177.219 64.503C177.219 63.7317 177.349 63.0817 177.609 62.553C177.869 62.0157 178.242 61.6083 178.727 61.331C179.212 61.045 179.789 60.902 180.456 60.902C181.089 60.902 181.643 61.045 182.12 61.331C182.605 61.6083 182.982 62.0157 183.251 62.553C183.528 63.0817 183.667 63.7317 183.667 64.503ZM178.402 64.503C178.402 65.049 178.471 65.5257 178.61 65.933C178.757 66.3317 178.983 66.6393 179.286 66.856C179.589 67.0727 179.975 67.181 180.443 67.181C180.911 67.181 181.297 67.0727 181.6 66.856C181.903 66.6393 182.124 66.3317 182.263 65.933C182.41 65.5257 182.484 65.049 182.484 64.503C182.484 63.9483 182.41 63.476 182.263 63.086C182.116 62.696 181.89 62.397 181.587 62.189C181.292 61.9723 180.907 61.864 180.43 61.864C179.719 61.864 179.204 62.098 178.883 62.566C178.562 63.034 178.402 63.6797 178.402 64.503ZM191.304 61.032V68H190.368L190.199 67.077H190.147C190 67.3197 189.809 67.519 189.575 67.675C189.341 67.831 189.085 67.9437 188.808 68.013C188.531 68.091 188.24 68.13 187.937 68.13C187.382 68.13 186.914 68.0433 186.533 67.87C186.16 67.688 185.879 67.4107 185.688 67.038C185.497 66.6653 185.402 66.1843 185.402 65.595V61.032H186.559V65.517C186.559 66.0717 186.685 66.4877 186.936 66.765C187.187 67.0423 187.577 67.181 188.106 67.181C188.626 67.181 189.033 67.0857 189.328 66.895C189.631 66.6957 189.844 66.4097 189.965 66.037C190.095 65.6557 190.16 65.1963 190.16 64.659V61.032H191.304ZM196.766 60.902C196.896 60.902 197.035 60.9107 197.182 60.928C197.338 60.9367 197.472 60.954 197.585 60.98L197.442 62.033C197.329 62.007 197.204 61.9853 197.065 61.968C196.935 61.9507 196.809 61.942 196.688 61.942C196.419 61.942 196.164 61.9983 195.921 62.111C195.678 62.2237 195.462 62.384 195.271 62.592C195.08 62.7913 194.929 63.034 194.816 63.32C194.712 63.606 194.66 63.9267 194.66 64.282V68H193.516V61.032H194.452L194.582 62.306H194.634C194.781 62.046 194.959 61.812 195.167 61.604C195.375 61.3873 195.613 61.2183 195.882 61.097C196.151 60.967 196.445 60.902 196.766 60.902ZM205.617 60.902C206.449 60.902 207.078 61.1057 207.502 61.513C207.927 61.9117 208.139 62.5617 208.139 63.463V68H207.008V63.541C207.008 62.9777 206.883 62.5573 206.631 62.28C206.38 62.0027 205.986 61.864 205.448 61.864C204.677 61.864 204.144 62.0807 203.849 62.514C203.555 62.9473 203.407 63.5713 203.407 64.386V68H202.263V61.032H203.186L203.355 61.981H203.42C203.576 61.7383 203.767 61.539 203.992 61.383C204.226 61.2183 204.482 61.097 204.759 61.019C205.037 60.941 205.323 60.902 205.617 60.902ZM212.99 60.902C213.588 60.902 214.1 61.032 214.524 61.292C214.958 61.552 215.287 61.9203 215.512 62.397C215.746 62.865 215.863 63.4153 215.863 64.048V64.737H211.092C211.11 65.5257 211.309 66.128 211.69 66.544C212.08 66.9513 212.622 67.155 213.315 67.155C213.757 67.155 214.147 67.116 214.485 67.038C214.832 66.9513 215.187 66.83 215.551 66.674V67.675C215.196 67.831 214.845 67.9437 214.498 68.013C214.152 68.091 213.74 68.13 213.263 68.13C212.605 68.13 212.02 67.9957 211.508 67.727C211.006 67.4583 210.611 67.0597 210.325 66.531C210.048 65.9937 209.909 65.3393 209.909 64.568C209.909 63.8053 210.035 63.151 210.286 62.605C210.546 62.059 210.906 61.6387 211.365 61.344C211.833 61.0493 212.375 60.902 212.99 60.902ZM212.977 61.838C212.431 61.838 211.998 62.0157 211.677 62.371C211.365 62.7177 211.179 63.203 211.118 63.827H214.667C214.667 63.4283 214.607 63.0817 214.485 62.787C214.364 62.4923 214.178 62.2627 213.926 62.098C213.684 61.9247 213.367 61.838 212.977 61.838ZM220.328 60.902C220.926 60.902 221.438 61.032 221.862 61.292C222.296 61.552 222.625 61.9203 222.85 62.397C223.084 62.865 223.201 63.4153 223.201 64.048V64.737H218.43C218.448 65.5257 218.647 66.128 219.028 66.544C219.418 66.9513 219.96 67.155 220.653 67.155C221.095 67.155 221.485 67.116 221.823 67.038C222.17 66.9513 222.525 66.83 222.889 66.674V67.675C222.534 67.831 222.183 67.9437 221.836 68.013C221.49 68.091 221.078 68.13 220.601 68.13C219.943 68.13 219.358 67.9957 218.846 67.727C218.344 67.4583 217.949 67.0597 217.663 66.531C217.386 65.9937 217.247 65.3393 217.247 64.568C217.247 63.8053 217.373 63.151 217.624 62.605C217.884 62.059 218.244 61.6387 218.703 61.344C219.171 61.0493 219.713 60.902 220.328 60.902ZM220.315 61.838C219.769 61.838 219.336 62.0157 219.015 62.371C218.703 62.7177 218.517 63.203 218.456 63.827H222.005C222.005 63.4283 221.945 63.0817 221.823 62.787C221.702 62.4923 221.516 62.2627 221.264 62.098C221.022 61.9247 220.705 61.838 220.315 61.838ZM227.445 68.13C226.578 68.13 225.885 67.831 225.365 67.233C224.845 66.6263 224.585 65.725 224.585 64.529C224.585 63.333 224.845 62.4317 225.365 61.825C225.894 61.2097 226.591 60.902 227.458 60.902C227.822 60.902 228.138 60.9497 228.407 61.045C228.676 61.1317 228.91 61.253 229.109 61.409C229.308 61.565 229.477 61.7383 229.616 61.929H229.694C229.685 61.8163 229.668 61.6517 229.642 61.435C229.625 61.2097 229.616 61.032 229.616 60.902V58.12H230.76V68H229.837L229.668 67.064H229.616C229.477 67.2633 229.308 67.4453 229.109 67.61C228.91 67.766 228.671 67.8917 228.394 67.987C228.125 68.0823 227.809 68.13 227.445 68.13ZM227.627 67.181C228.364 67.181 228.879 66.9817 229.174 66.583C229.477 66.1757 229.629 65.5647 229.629 64.75V64.542C229.629 63.6753 229.486 63.0123 229.2 62.553C228.914 62.085 228.385 61.851 227.614 61.851C226.999 61.851 226.535 62.098 226.223 62.592C225.92 63.0773 225.768 63.7317 225.768 64.555C225.768 65.387 225.92 66.0327 226.223 66.492C226.535 66.9513 227.003 67.181 227.627 67.181ZM234.364 66.635C234.286 66.9383 234.186 67.2677 234.065 67.623C233.944 67.9783 233.809 68.3293 233.662 68.676C233.523 69.0313 233.385 69.365 233.246 69.677H232.401C232.488 69.3477 232.57 68.9923 232.648 68.611C232.735 68.2383 232.813 67.87 232.882 67.506C232.951 67.1333 233.008 66.7953 233.051 66.492H234.273L234.364 66.635ZM244.327 64.061C244.275 63.879 244.223 63.7013 244.171 63.528C244.119 63.346 244.071 63.177 244.028 63.021C243.993 62.8563 243.958 62.7047 243.924 62.566C243.889 62.4273 243.863 62.3103 243.846 62.215H243.794C243.776 62.3103 243.75 62.4273 243.716 62.566C243.69 62.7047 243.655 62.8563 243.612 63.021C243.577 63.1857 243.534 63.359 243.482 63.541C243.438 63.7143 243.386 63.892 243.326 64.074L242.078 67.987H240.778L238.867 61.019H240.05L241.012 64.737C241.081 64.9883 241.146 65.244 241.207 65.504C241.267 65.7553 241.319 65.998 241.363 66.232C241.415 66.4573 241.449 66.6523 241.467 66.817H241.519C241.545 66.713 241.575 66.583 241.61 66.427C241.644 66.271 241.679 66.1063 241.714 65.933C241.757 65.7597 241.8 65.5863 241.844 65.413C241.896 65.2397 241.943 65.0837 241.987 64.945L243.222 61.019H244.47L245.666 64.945C245.726 65.1443 245.787 65.3567 245.848 65.582C245.917 65.8073 245.978 66.0283 246.03 66.245C246.082 66.453 246.116 66.6393 246.134 66.804H246.186C246.203 66.6567 246.233 66.4747 246.277 66.258C246.329 66.0327 246.385 65.79 246.446 65.53C246.515 65.2613 246.584 64.997 246.654 64.737L247.629 61.019H248.799L246.862 67.987H245.523L244.327 64.061ZM252.739 60.902C253.337 60.902 253.849 61.032 254.273 61.292C254.707 61.552 255.036 61.9203 255.261 62.397C255.495 62.865 255.612 63.4153 255.612 64.048V64.737H250.841C250.859 65.5257 251.058 66.128 251.439 66.544C251.829 66.9513 252.371 67.155 253.064 67.155C253.506 67.155 253.896 67.116 254.234 67.038C254.581 66.9513 254.936 66.83 255.3 66.674V67.675C254.945 67.831 254.594 67.9437 254.247 68.013C253.901 68.091 253.489 68.13 253.012 68.13C252.354 68.13 251.769 67.9957 251.257 67.727C250.755 67.4583 250.36 67.0597 250.074 66.531C249.797 65.9937 249.658 65.3393 249.658 64.568C249.658 63.8053 249.784 63.151 250.035 62.605C250.295 62.059 250.655 61.6387 251.114 61.344C251.582 61.0493 252.124 60.902 252.739 60.902ZM252.726 61.838C252.18 61.838 251.747 62.0157 251.426 62.371C251.114 62.7177 250.928 63.203 250.867 63.827H254.416C254.416 63.4283 254.356 63.0817 254.234 62.787C254.113 62.4923 253.927 62.2627 253.675 62.098C253.433 61.9247 253.116 61.838 252.726 61.838ZM263.233 60.902C263.693 60.902 264.104 60.9887 264.468 61.162C264.841 61.3353 265.157 61.5997 265.417 61.955H265.482L265.638 61.032H266.548V68.117C266.548 68.7757 266.436 69.326 266.21 69.768C265.985 70.2187 265.643 70.5567 265.183 70.782C264.724 71.0073 264.139 71.12 263.428 71.12C262.926 71.12 262.462 71.081 262.037 71.003C261.621 70.9337 261.249 70.8253 260.919 70.678V69.625C261.145 69.7377 261.392 69.833 261.66 69.911C261.929 69.9977 262.219 70.0627 262.531 70.106C262.843 70.1493 263.164 70.171 263.493 70.171C264.091 70.171 264.559 69.9933 264.897 69.638C265.244 69.2913 265.417 68.8147 265.417 68.208V67.935C265.417 67.831 265.422 67.6837 265.43 67.493C265.439 67.2937 265.448 67.155 265.456 67.077H265.404C265.162 67.4323 264.858 67.6967 264.494 67.87C264.139 68.0433 263.723 68.13 263.246 68.13C262.345 68.13 261.639 67.8137 261.127 67.181C260.625 66.5483 260.373 65.6643 260.373 64.529C260.373 63.7837 260.486 63.1423 260.711 62.605C260.945 62.059 261.275 61.6387 261.699 61.344C262.124 61.0493 262.635 60.902 263.233 60.902ZM263.389 61.864C262.999 61.864 262.666 61.968 262.388 62.176C262.12 62.384 261.912 62.6873 261.764 63.086C261.626 63.4847 261.556 63.97 261.556 64.542C261.556 65.4 261.712 66.0587 262.024 66.518C262.345 66.9687 262.809 67.194 263.415 67.194C263.771 67.194 264.074 67.1507 264.325 67.064C264.577 66.9687 264.785 66.8257 264.949 66.635C265.114 66.4357 265.235 66.1843 265.313 65.881C265.391 65.5777 265.43 65.218 265.43 64.802V64.529C265.43 63.8963 265.357 63.385 265.209 62.995C265.071 62.605 264.85 62.319 264.546 62.137C264.243 61.955 263.857 61.864 263.389 61.864ZM274.819 64.503C274.819 65.0837 274.741 65.5993 274.585 66.05C274.438 66.492 274.221 66.869 273.935 67.181C273.658 67.493 273.316 67.7313 272.908 67.896C272.51 68.052 272.063 68.13 271.569 68.13C271.11 68.13 270.685 68.052 270.295 67.896C269.905 67.7313 269.567 67.493 269.281 67.181C268.995 66.869 268.77 66.492 268.605 66.05C268.449 65.5993 268.371 65.0837 268.371 64.503C268.371 63.7317 268.501 63.0817 268.761 62.553C269.021 62.0157 269.394 61.6083 269.879 61.331C270.365 61.045 270.941 60.902 271.608 60.902C272.241 60.902 272.796 61.045 273.272 61.331C273.758 61.6083 274.135 62.0157 274.403 62.553C274.681 63.0817 274.819 63.7317 274.819 64.503ZM269.554 64.503C269.554 65.049 269.624 65.5257 269.762 65.933C269.91 66.3317 270.135 66.6393 270.438 66.856C270.742 67.0727 271.127 67.181 271.595 67.181C272.063 67.181 272.449 67.0727 272.752 66.856C273.056 66.6393 273.277 66.3317 273.415 65.933C273.563 65.5257 273.636 65.049 273.636 64.503C273.636 63.9483 273.563 63.476 273.415 63.086C273.268 62.696 273.043 62.397 272.739 62.189C272.445 61.9723 272.059 61.864 271.582 61.864C270.872 61.864 270.356 62.098 270.035 62.566C269.715 63.034 269.554 63.6797 269.554 64.503ZM278.959 67.194C279.133 67.194 279.31 67.181 279.492 67.155C279.674 67.1203 279.822 67.0857 279.934 67.051V67.922C279.813 67.9827 279.64 68.0303 279.414 68.065C279.189 68.1083 278.972 68.13 278.764 68.13C278.4 68.13 278.062 68.0693 277.75 67.948C277.447 67.818 277.2 67.597 277.009 67.285C276.819 66.973 276.723 66.5353 276.723 65.972V61.916H275.735V61.37L276.736 60.915L277.191 59.433H277.867V61.032H279.882V61.916H277.867V65.946C277.867 66.3707 277.967 66.687 278.166 66.895C278.374 67.0943 278.639 67.194 278.959 67.194ZM285.851 61.032V68H284.707V61.032H285.851ZM285.292 58.419C285.465 58.419 285.617 58.4797 285.747 58.601C285.885 58.7137 285.955 58.8957 285.955 59.147C285.955 59.3897 285.885 59.5717 285.747 59.693C285.617 59.8143 285.465 59.875 285.292 59.875C285.101 59.875 284.941 59.8143 284.811 59.693C284.681 59.5717 284.616 59.3897 284.616 59.147C284.616 58.8957 284.681 58.7137 284.811 58.601C284.941 58.4797 285.101 58.419 285.292 58.419ZM290.385 67.194C290.558 67.194 290.736 67.181 290.918 67.155C291.1 67.1203 291.247 67.0857 291.36 67.051V67.922C291.239 67.9827 291.065 68.0303 290.84 68.065C290.615 68.1083 290.398 68.13 290.19 68.13C289.826 68.13 289.488 68.0693 289.176 67.948C288.873 67.818 288.626 67.597 288.435 67.285C288.244 66.973 288.149 66.5353 288.149 65.972V61.916H287.161V61.37L288.162 60.915L288.617 59.433H289.293V61.032H291.308V61.916H289.293V65.946C289.293 66.3707 289.393 66.687 289.592 66.895C289.8 67.0943 290.064 67.194 290.385 67.194ZM298.927 68.13C298.312 68.13 297.762 68.0043 297.276 67.753C296.8 67.5017 296.423 67.1117 296.145 66.583C295.877 66.0543 295.742 65.3783 295.742 64.555C295.742 63.697 295.885 62.9993 296.171 62.462C296.457 61.9247 296.843 61.5303 297.328 61.279C297.822 61.0277 298.381 60.902 299.005 60.902C299.361 60.902 299.703 60.941 300.032 61.019C300.362 61.0883 300.63 61.175 300.838 61.279L300.487 62.228C300.279 62.15 300.037 62.0763 299.759 62.007C299.482 61.9377 299.222 61.903 298.979 61.903C298.511 61.903 298.126 62.0027 297.822 62.202C297.519 62.4013 297.294 62.696 297.146 63.086C296.999 63.476 296.925 63.9613 296.925 64.542C296.925 65.0967 296.999 65.569 297.146 65.959C297.294 66.349 297.515 66.6437 297.809 66.843C298.104 67.0423 298.472 67.142 298.914 67.142C299.296 67.142 299.629 67.103 299.915 67.025C300.21 66.947 300.479 66.8517 300.721 66.739V67.753C300.487 67.8743 300.227 67.9653 299.941 68.026C299.664 68.0953 299.326 68.13 298.927 68.13ZM308.436 64.503C308.436 65.0837 308.358 65.5993 308.202 66.05C308.055 66.492 307.838 66.869 307.552 67.181C307.275 67.493 306.933 67.7313 306.525 67.896C306.127 68.052 305.68 68.13 305.186 68.13C304.727 68.13 304.302 68.052 303.912 67.896C303.522 67.7313 303.184 67.493 302.898 67.181C302.612 66.869 302.387 66.492 302.222 66.05C302.066 65.5993 301.988 65.0837 301.988 64.503C301.988 63.7317 302.118 63.0817 302.378 62.553C302.638 62.0157 303.011 61.6083 303.496 61.331C303.982 61.045 304.558 60.902 305.225 60.902C305.858 60.902 306.413 61.045 306.889 61.331C307.375 61.6083 307.752 62.0157 308.02 62.553C308.298 63.0817 308.436 63.7317 308.436 64.503ZM303.171 64.503C303.171 65.049 303.241 65.5257 303.379 65.933C303.527 66.3317 303.752 66.6393 304.055 66.856C304.359 67.0727 304.744 67.181 305.212 67.181C305.68 67.181 306.066 67.0727 306.369 66.856C306.673 66.6393 306.894 66.3317 307.032 65.933C307.18 65.5257 307.253 65.049 307.253 64.503C307.253 63.9483 307.18 63.476 307.032 63.086C306.885 62.696 306.66 62.397 306.356 62.189C306.062 61.9723 305.676 61.864 305.199 61.864C304.489 61.864 303.973 62.098 303.652 62.566C303.332 63.034 303.171 63.6797 303.171 64.503ZM311.53 68L308.891 61.032H310.113L311.595 65.14C311.664 65.3307 311.738 65.543 311.816 65.777C311.894 66.011 311.963 66.2363 312.024 66.453C312.084 66.661 312.128 66.8387 312.154 66.986H312.206C312.24 66.8387 312.288 66.6567 312.349 66.44C312.418 66.2233 312.492 65.998 312.57 65.764C312.656 65.53 312.73 65.322 312.791 65.14L314.273 61.032H315.495L312.843 68H311.53ZM319.288 60.902C319.886 60.902 320.398 61.032 320.822 61.292C321.256 61.552 321.585 61.9203 321.81 62.397C322.044 62.865 322.161 63.4153 322.161 64.048V64.737H317.39C317.408 65.5257 317.607 66.128 317.988 66.544C318.378 66.9513 318.92 67.155 319.613 67.155C320.055 67.155 320.445 67.116 320.783 67.038C321.13 66.9513 321.485 66.83 321.849 66.674V67.675C321.494 67.831 321.143 67.9437 320.796 68.013C320.45 68.091 320.038 68.13 319.561 68.13C318.903 68.13 318.318 67.9957 317.806 67.727C317.304 67.4583 316.909 67.0597 316.623 66.531C316.346 65.9937 316.207 65.3393 316.207 64.568C316.207 63.8053 316.333 63.151 316.584 62.605C316.844 62.059 317.204 61.6387 317.663 61.344C318.131 61.0493 318.673 60.902 319.288 60.902ZM319.275 61.838C318.729 61.838 318.296 62.0157 317.975 62.371C317.663 62.7177 317.477 63.203 317.416 63.827H320.965C320.965 63.4283 320.905 63.0817 320.783 62.787C320.662 62.4923 320.476 62.2627 320.224 62.098C319.982 61.9247 319.665 61.838 319.275 61.838ZM327.185 60.902C327.315 60.902 327.454 60.9107 327.601 60.928C327.757 60.9367 327.891 60.954 328.004 60.98L327.861 62.033C327.748 62.007 327.623 61.9853 327.484 61.968C327.354 61.9507 327.228 61.942 327.107 61.942C326.838 61.942 326.583 61.9983 326.34 62.111C326.097 62.2237 325.881 62.384 325.69 62.592C325.499 62.7913 325.348 63.034 325.235 63.32C325.131 63.606 325.079 63.9267 325.079 64.282V68H323.935V61.032H324.871L325.001 62.306H325.053C325.2 62.046 325.378 61.812 325.586 61.604C325.794 61.3873 326.032 61.2183 326.301 61.097C326.57 60.967 326.864 60.902 327.185 60.902ZM331.742 60.902C332.34 60.902 332.852 61.032 333.276 61.292C333.71 61.552 334.039 61.9203 334.264 62.397C334.498 62.865 334.615 63.4153 334.615 64.048V64.737H329.844C329.862 65.5257 330.061 66.128 330.442 66.544C330.832 66.9513 331.374 67.155 332.067 67.155C332.509 67.155 332.899 67.116 333.237 67.038C333.584 66.9513 333.939 66.83 334.303 66.674V67.675C333.948 67.831 333.597 67.9437 333.25 68.013C332.904 68.091 332.492 68.13 332.015 68.13C331.357 68.13 330.772 67.9957 330.26 67.727C329.758 67.4583 329.363 67.0597 329.077 66.531C328.8 65.9937 328.661 65.3393 328.661 64.568C328.661 63.8053 328.787 63.151 329.038 62.605C329.298 62.059 329.658 61.6387 330.117 61.344C330.585 61.0493 331.127 60.902 331.742 60.902ZM331.729 61.838C331.183 61.838 330.75 62.0157 330.429 62.371C330.117 62.7177 329.931 63.203 329.87 63.827H333.419C333.419 63.4283 333.359 63.0817 333.237 62.787C333.116 62.4923 332.93 62.2627 332.678 62.098C332.436 61.9247 332.119 61.838 331.729 61.838ZM338.859 68.13C337.993 68.13 337.299 67.831 336.779 67.233C336.259 66.6263 335.999 65.725 335.999 64.529C335.999 63.333 336.259 62.4317 336.779 61.825C337.308 61.2097 338.006 60.902 338.872 60.902C339.236 60.902 339.553 60.9497 339.821 61.045C340.09 61.1317 340.324 61.253 340.523 61.409C340.723 61.565 340.892 61.7383 341.03 61.929H341.108C341.1 61.8163 341.082 61.6517 341.056 61.435C341.039 61.2097 341.03 61.032 341.03 60.902V58.12H342.174V68H341.251L341.082 67.064H341.03C340.892 67.2633 340.723 67.4453 340.523 67.61C340.324 67.766 340.086 67.8917 339.808 67.987C339.54 68.0823 339.223 68.13 338.859 68.13ZM339.041 67.181C339.778 67.181 340.294 66.9817 340.588 66.583C340.892 66.1757 341.043 65.5647 341.043 64.75V64.542C341.043 63.6753 340.9 63.0123 340.614 62.553C340.328 62.085 339.8 61.851 339.028 61.851C338.413 61.851 337.949 62.098 337.637 62.592C337.334 63.0773 337.182 63.7317 337.182 64.555C337.182 65.387 337.334 66.0327 337.637 66.492C337.949 66.9513 338.417 67.181 339.041 67.181Z" fill="#6E6E6E"/>
</g>
<defs>
<clipPath id="clip0_1_21">
<rect width="370" height="110" fill="white"/>
</clipPath>
</defs>
</svg>
