<svg width="390" height="187" viewBox="0 0 390 187" fill="none" xmlns="http://www.w3.org/2000/svg">
<g clip-path="url(#clip0_1_29)">
<path d="M370 0H20C8.9543 0 0 8.9543 0 20V167C0 178.046 8.9543 187 20 187H370C381.046 187 390 178.046 390 167V20C390 8.9543 381.046 0 370 0Z" fill="white" fill-opacity="0.8"/>
<path d="M260 109H130C116.193 109 105 120.193 105 134C105 147.807 116.193 159 130 159H260C273.807 159 285 147.807 285 134C285 120.193 273.807 109 260 109Z" fill="#D8587E"/>
<path d="M73 84C77.9706 84 82 79.9706 82 75C82 70.0294 77.9706 66 73 66C68.0294 66 64 70.0294 64 75C64 79.9706 68.0294 84 73 84Z" fill="#2EBB5E" stroke="#FBECD7" stroke-width="2"/>
<path d="M20.9189 128.752C19.7403 128.752 18.6106 129.221 17.7779 130.056C16.9448 130.889 16.4786 132.021 16.481 133.2C16.4834 134.378 16.9543 135.507 17.7904 136.338C18.6266 137.17 19.7587 137.633 20.9368 137.629C22.1155 137.624 23.2441 137.15 24.073 136.313C24.9026 135.475 25.3645 134.343 25.3573 133.164C25.3573 131.989 24.8888 130.863 24.0557 130.035C23.2225 129.207 22.0939 128.745 20.9189 128.752L20.9189 128.752ZM20.9189 134.822C20.2487 134.822 19.6442 134.418 19.3876 133.798C19.131 133.179 19.273 132.466 19.7469 131.992C20.2214 131.518 20.9339 131.376 21.5534 131.633C22.1729 131.889 22.5769 132.494 22.5769 133.164C22.599 133.617 22.4337 134.06 22.1209 134.388C21.8076 134.717 21.3732 134.902 20.919 134.902L20.9189 134.822Z" fill="#FFC378"/>
<path d="M26.2403 113.859H20.893C20.1446 113.867 19.4433 114.223 18.9945 114.822L11.4544 125.303C11.1571 125.705 10.9978 126.193 11.0002 126.693V130.891C10.9924 131.517 11.2383 132.12 11.6811 132.562C12.124 133.005 12.7267 133.251 13.3527 133.243H15.7322C15.7322 131.39 16.7211 129.678 18.3259 128.752C19.9308 127.825 21.9079 127.825 23.5128 128.752C25.1176 129.678 26.1065 131.39 26.1065 133.243H27.6308H27.6302C28.162 133.243 28.5929 132.812 28.5929 132.281V116.239C28.5929 115.612 28.3458 115.011 27.9053 114.566C27.4649 114.12 26.8663 113.866 26.2403 113.859L26.2403 113.859ZM26.8819 122.174C26.8819 123.016 26.1998 123.699 25.3577 123.699H18.2192C17.6558 123.697 17.139 123.385 16.8758 122.886C16.6126 122.388 16.646 121.785 16.9623 121.319L20.5718 116.159C20.8147 115.737 21.239 115.45 21.7212 115.383H25.3576C26.1932 115.398 26.8675 116.071 26.8819 116.908L26.8819 122.174Z" fill="#FFC378"/>
<path d="M41.9616 128.752C40.783 128.752 39.6526 129.221 38.8201 130.056C37.9876 130.889 37.5209 132.021 37.5233 133.2C37.5256 134.378 37.9971 135.507 38.8327 136.338C39.6688 137.17 40.801 137.633 41.9797 137.629C43.1584 137.624 44.287 137.15 45.1158 136.313C45.9454 135.475 46.4073 134.343 46.4002 133.164C46.4002 131.989 45.9317 130.863 45.0985 130.035C44.2654 129.207 43.1362 128.745 41.9617 128.752L41.9616 128.752ZM41.9616 134.822C41.2914 134.822 40.6869 134.418 40.4303 133.798C40.1737 133.179 40.3157 132.466 40.7896 131.992C41.2635 131.518 41.9766 131.376 42.5961 131.633C43.2156 131.889 43.6196 132.494 43.6196 133.164C43.6411 133.617 43.4764 134.06 43.163 134.388C42.8497 134.717 42.4158 134.902 41.9617 134.902L41.9616 134.822Z" fill="#FFC378"/>
<path d="M53.9398 128.752C52.7599 128.745 51.6254 129.208 50.7874 130.04C49.9495 130.871 49.4774 132.001 49.475 133.182C49.4727 134.362 49.9406 135.494 50.7749 136.329C51.6092 137.164 52.742 137.631 53.9225 137.629C55.1024 137.626 56.2334 137.154 57.064 136.316C57.8954 135.478 58.3585 134.344 58.3513 133.164C58.3513 131.994 57.887 130.871 57.0593 130.044C56.2321 129.217 55.1101 128.752 53.9398 128.752L53.9398 128.752ZM53.9398 134.822C53.2672 134.833 52.6548 134.436 52.3898 133.817C52.1242 133.199 52.2597 132.481 52.7318 132.001C53.2032 131.522 53.9188 131.375 54.5413 131.63C55.1638 131.885 55.5708 132.491 55.5708 133.164C55.5929 133.613 55.4312 134.051 55.1238 134.378C54.8165 134.706 54.3891 134.895 53.9398 134.902L53.9398 134.822Z" fill="#FFC378"/>
<path d="M60.0893 107.363H31.5343C30.5889 107.363 29.8232 108.129 29.8232 109.074V131.693C29.8376 132.628 30.5997 133.378 31.5343 133.377H36.8816C36.8816 131.524 37.8706 129.812 39.4754 128.886C41.0803 127.959 43.0574 127.959 44.6622 128.886C46.2671 129.812 47.2554 131.524 47.2554 133.377H48.8334C48.7295 131.941 49.2284 130.526 50.2096 129.472C51.1907 128.417 52.5664 127.819 54.0065 127.819C55.4472 127.819 56.8229 128.417 57.8039 129.472C58.7851 130.526 59.2834 131.941 59.1802 133.377H61.8539V108.94C61.7829 108.027 61.0052 107.331 60.0891 107.362L60.0893 107.363Z" fill="#FFC378"/>
<path d="M37.7907 94.2341C37.805 93.4565 38.1237 92.7152 38.6788 92.1703C39.2338 91.6249 39.981 91.3199 40.7586 91.3199H72.1737C72.9609 91.3199 73.7159 91.6326 74.272 92.1888C74.8289 92.7457 75.1416 93.5006 75.1416 94.2878V109.367H83.1627V89.9822C83.1609 88.7868 82.545 87.6755 81.5316 87.0411L58.3499 72.2559C57.7895 71.8901 57.1348 71.6949 56.4651 71.6949C55.7955 71.6949 55.1408 71.8901 54.5804 72.2559L31.4522 87.0411C30.4388 87.6755 29.8229 88.7868 29.8211 89.9822V104.982H37.8422L37.7907 94.2341Z" fill="#FFC378"/>
<path d="M68.2173 124.286H74.5274C75.7825 124.286 76.8 125.542 76.8 126.559V132.869C76.8 134.124 75.7825 135.142 74.5274 135.142H68.2173C66.9623 135.142 65.9447 133.887 65.9447 132.869V126.559C65.9447 125.304 66.9623 124.286 68.2173 124.286V124.286Z" fill="#FFC378"/>
<path d="M80.3835 124.286H86.6936C87.9486 124.286 88.9662 125.542 88.9662 126.559V132.869C88.9662 134.124 87.9486 135.142 86.6936 135.142H80.3835C79.1284 135.142 78.1108 133.887 78.1108 132.869V126.559C78.1108 125.304 79.1284 124.286 80.3835 124.286Z" fill="#FFC378"/>
<path d="M74.3133 112.496H80.6234C81.8784 112.496 82.896 113.751 82.896 114.769V121.079C82.896 122.334 81.8784 123.351 80.6234 123.351H74.3133C73.0582 123.351 72.0406 122.096 72.0406 121.079V114.769C72.0406 113.514 73.0582 112.496 74.3133 112.496V112.496Z" fill="#FFC378"/>
<rect x="53.7118" y="58.1357" width="28.4746" height="30.5085" fill="white"/>
<path d="M66.5932 50.0006C60.1204 50.0006 53.9118 52.5721 49.3351 57.1491C44.758 61.7265 42.1865 67.9343 42.1865 74.4071C42.1865 80.8799 44.758 87.0883 49.3351 91.665C53.9125 96.242 60.1204 98.8136 66.5932 98.8136C73.0661 98.8136 79.2747 96.242 83.8514 91.665C88.4285 87.0877 91 80.8799 91 74.4071C90.9926 67.9364 88.4188 61.7325 83.8432 57.1567C79.2677 52.5809 73.0636 50.0074 66.5927 50L66.5932 50.0006ZM76.6996 76.2531L63.3868 85.1281V85.1285C62.9392 85.4271 62.398 85.5527 61.8645 85.4821C61.3311 85.4116 60.8415 85.1497 60.4872 84.7448C60.1325 84.3403 59.9371 83.8206 59.9371 83.2824V65.5328C59.9371 64.9946 60.1325 64.4749 60.4872 64.0704C60.8416 63.6655 61.3312 63.4037 61.8645 63.3331C62.3979 63.2625 62.9392 63.3881 63.3868 63.6867L76.6996 72.5617C77.3166 72.9733 77.6877 73.666 77.6877 74.4078C77.6877 75.1496 77.3166 75.8423 76.6996 76.2539V76.2531Z" fill="#FFC378"/>
<path d="M122.56 42.16H127.96V49.42C127.2 49.6733 126.42 49.8667 125.62 50C124.82 50.1333 123.913 50.2 122.9 50.2C121.46 50.2 120.24 49.9133 119.24 49.34C118.24 48.7667 117.48 47.9333 116.96 46.84C116.44 45.7467 116.18 44.4133 116.18 42.84C116.18 41.3467 116.473 40.0533 117.06 38.96C117.647 37.8667 118.487 37.02 119.58 36.42C120.687 35.82 122.033 35.52 123.62 35.52C124.393 35.52 125.14 35.6 125.86 35.76C126.593 35.9067 127.26 36.1133 127.86 36.38L126.98 38.48C126.527 38.2533 126 38.0667 125.4 37.92C124.813 37.76 124.2 37.68 123.56 37.68C122.587 37.68 121.747 37.8933 121.04 38.32C120.333 38.7467 119.787 39.3533 119.4 40.14C119.027 40.9133 118.84 41.8267 118.84 42.88C118.84 43.8933 118.987 44.7933 119.28 45.58C119.573 46.3533 120.04 46.96 120.68 47.4C121.32 47.8267 122.153 48.04 123.18 48.04C123.527 48.04 123.827 48.0267 124.08 48C124.347 47.9733 124.587 47.94 124.8 47.9C125.027 47.86 125.24 47.82 125.44 47.78V44.34H122.56V42.16ZM135.492 38.96C136.465 38.96 137.298 39.16 137.992 39.56C138.698 39.9467 139.245 40.5067 139.632 41.24C140.018 41.96 140.212 42.84 140.212 43.88V45.16H133.052C133.078 46.1467 133.352 46.9133 133.872 47.46C134.392 47.9933 135.112 48.26 136.032 48.26C136.738 48.26 137.365 48.1933 137.912 48.06C138.472 47.9133 139.045 47.7067 139.632 47.44V49.46C139.098 49.7133 138.545 49.9 137.972 50.02C137.398 50.14 136.712 50.2 135.912 50.2C134.858 50.2 133.918 50 133.092 49.6C132.278 49.1867 131.638 48.5667 131.172 47.74C130.718 46.9133 130.492 45.8867 130.492 44.66C130.492 43.42 130.698 42.38 131.112 41.54C131.538 40.6867 132.125 40.0467 132.872 39.62C133.618 39.18 134.492 38.96 135.492 38.96ZM135.492 40.82C134.825 40.82 134.278 41.04 133.852 41.48C133.438 41.9067 133.192 42.5467 133.112 43.4H137.772C137.772 42.8933 137.685 42.4467 137.512 42.06C137.352 41.6733 137.105 41.3733 136.772 41.16C136.438 40.9333 136.012 40.82 135.492 40.82ZM146.953 48.18C147.273 48.18 147.579 48.1533 147.873 48.1C148.166 48.0333 148.439 47.96 148.693 47.88V49.76C148.426 49.88 148.079 49.98 147.653 50.06C147.226 50.1533 146.779 50.2 146.313 50.2C145.699 50.2 145.139 50.1 144.633 49.9C144.139 49.6867 143.739 49.3267 143.433 48.82C143.139 48.3133 142.993 47.6067 142.993 46.7V41.06H141.533V39.96L143.133 39.08L143.933 36.78H145.513V39.16H148.593V41.06H145.513V46.68C145.513 47.1867 145.646 47.5667 145.913 47.82C146.179 48.06 146.526 48.18 146.953 48.18ZM160.373 35.72C161.626 35.72 162.66 35.8733 163.473 36.18C164.286 36.4867 164.893 36.9533 165.293 37.58C165.693 38.1933 165.893 38.9733 165.893 39.92C165.893 40.6133 165.76 41.2067 165.493 41.7C165.24 42.1933 164.906 42.6067 164.493 42.94C164.08 43.26 163.633 43.52 163.153 43.72L167.253 50H164.373L160.953 44.36H158.873V50H156.313V35.72H160.373ZM160.213 37.86H158.873V42.26H160.293C161 42.26 161.573 42.1733 162.013 42C162.453 41.8267 162.773 41.5733 162.973 41.24C163.186 40.9067 163.293 40.4933 163.293 40C163.293 39.48 163.18 39.0667 162.953 38.76C162.726 38.44 162.386 38.2133 161.933 38.08C161.493 37.9333 160.92 37.86 160.213 37.86ZM173.363 38.96C174.336 38.96 175.169 39.16 175.863 39.56C176.569 39.9467 177.116 40.5067 177.503 41.24C177.889 41.96 178.083 42.84 178.083 43.88V45.16H170.923C170.949 46.1467 171.223 46.9133 171.743 47.46C172.263 47.9933 172.983 48.26 173.903 48.26C174.609 48.26 175.236 48.1933 175.783 48.06C176.343 47.9133 176.916 47.7067 177.503 47.44V49.46C176.969 49.7133 176.416 49.9 175.843 50.02C175.269 50.14 174.583 50.2 173.783 50.2C172.729 50.2 171.789 50 170.963 49.6C170.149 49.1867 169.509 48.5667 169.043 47.74C168.589 46.9133 168.363 45.8867 168.363 44.66C168.363 43.42 168.569 42.38 168.983 41.54C169.409 40.6867 169.996 40.0467 170.743 39.62C171.489 39.18 172.363 38.96 173.363 38.96ZM173.363 40.82C172.696 40.82 172.149 41.04 171.723 41.48C171.309 41.9067 171.063 42.5467 170.983 43.4H175.643C175.643 42.8933 175.556 42.4467 175.383 42.06C175.223 41.6733 174.976 41.3733 174.643 41.16C174.309 40.9333 173.883 40.82 173.363 40.82ZM184.944 38.96C186.344 38.96 187.404 39.2667 188.124 39.88C188.857 40.48 189.224 41.4267 189.224 42.72V50H187.444L186.944 48.5H186.864C186.557 48.8867 186.237 49.2133 185.904 49.48C185.584 49.7333 185.211 49.9133 184.784 50.02C184.371 50.14 183.864 50.2 183.264 50.2C182.624 50.2 182.044 50.08 181.524 49.84C181.017 49.6 180.617 49.2333 180.324 48.74C180.031 48.2333 179.884 47.6 179.884 46.84C179.884 45.72 180.291 44.88 181.104 44.32C181.931 43.7467 183.177 43.4333 184.844 43.38L186.724 43.32V42.78C186.724 42.0867 186.557 41.5933 186.224 41.3C185.891 41.0067 185.424 40.86 184.824 40.86C184.277 40.86 183.751 40.94 183.244 41.1C182.737 41.26 182.244 41.4467 181.764 41.66L180.964 39.9C181.497 39.62 182.104 39.3933 182.784 39.22C183.477 39.0467 184.197 38.96 184.944 38.96ZM185.404 44.92C184.297 44.96 183.531 45.1533 183.104 45.5C182.677 45.8333 182.464 46.2867 182.464 46.86C182.464 47.3667 182.617 47.7333 182.924 47.96C183.231 48.1867 183.624 48.3 184.104 48.3C184.837 48.3 185.457 48.0933 185.964 47.68C186.471 47.2533 186.724 46.6267 186.724 45.8V44.88L185.404 44.92ZM194.902 50H192.382V34.8H194.902V50ZM202.324 48.18C202.644 48.18 202.951 48.1533 203.244 48.1C203.537 48.0333 203.811 47.96 204.064 47.88V49.76C203.797 49.88 203.451 49.98 203.024 50.06C202.597 50.1533 202.151 50.2 201.684 50.2C201.071 50.2 200.511 50.1 200.004 49.9C199.511 49.6867 199.111 49.3267 198.804 48.82C198.511 48.3133 198.364 47.6067 198.364 46.7V41.06H196.904V39.96L198.504 39.08L199.304 36.78H200.884V39.16H203.964V41.06H200.884V46.68C200.884 47.1867 201.017 47.5667 201.284 47.82C201.551 48.06 201.897 48.18 202.324 48.18ZM208.769 39.16V50H206.249V39.16H208.769ZM207.509 34.98C207.882 34.98 208.209 35.08 208.489 35.28C208.769 35.4667 208.909 35.8067 208.909 36.3C208.909 36.78 208.769 37.1267 208.489 37.34C208.209 37.54 207.882 37.64 207.509 37.64C207.122 37.64 206.789 37.54 206.509 37.34C206.242 37.1267 206.109 36.78 206.109 36.3C206.109 35.8067 206.242 35.4667 206.509 35.28C206.789 35.08 207.122 34.98 207.509 34.98ZM224.411 38.96C225.638 38.96 226.558 39.2733 227.171 39.9C227.798 40.5267 228.111 41.54 228.111 42.94V50H225.591V43.42C225.591 42.62 225.444 42.02 225.151 41.62C224.858 41.2067 224.391 41 223.751 41C222.871 41 222.244 41.2867 221.871 41.86C221.498 42.4333 221.311 43.2667 221.311 44.36V50H218.791V43.42C218.791 42.8867 218.724 42.44 218.591 42.08C218.458 41.72 218.251 41.4533 217.971 41.28C217.704 41.0933 217.358 41 216.931 41C216.331 41 215.851 41.1467 215.491 41.44C215.131 41.72 214.878 42.1333 214.731 42.68C214.584 43.2267 214.511 43.9 214.511 44.7V50H211.991V39.16H213.931L214.291 40.58H214.431C214.658 40.2067 214.931 39.9 215.251 39.66C215.584 39.42 215.951 39.2467 216.351 39.14C216.764 39.02 217.178 38.96 217.591 38.96C218.404 38.96 219.091 39.1 219.651 39.38C220.211 39.6467 220.631 40.0667 220.911 40.64H221.111C221.444 40.0533 221.911 39.6267 222.511 39.36C223.124 39.0933 223.758 38.96 224.411 38.96ZM235.628 38.96C236.602 38.96 237.435 39.16 238.128 39.56C238.835 39.9467 239.382 40.5067 239.768 41.24C240.155 41.96 240.348 42.84 240.348 43.88V45.16H233.188C233.215 46.1467 233.488 46.9133 234.008 47.46C234.528 47.9933 235.248 48.26 236.168 48.26C236.875 48.26 237.502 48.1933 238.048 48.06C238.608 47.9133 239.182 47.7067 239.768 47.44V49.46C239.235 49.7133 238.682 49.9 238.108 50.02C237.535 50.14 236.848 50.2 236.048 50.2C234.995 50.2 234.055 50 233.228 49.6C232.415 49.1867 231.775 48.5667 231.308 47.74C230.855 46.9133 230.628 45.8867 230.628 44.66C230.628 43.42 230.835 42.38 231.248 41.54C231.675 40.6867 232.262 40.0467 233.008 39.62C233.755 39.18 234.628 38.96 235.628 38.96ZM235.628 40.82C234.962 40.82 234.415 41.04 233.988 41.48C233.575 41.9067 233.328 42.5467 233.248 43.4H237.908C237.908 42.8933 237.822 42.4467 237.648 42.06C237.488 41.6733 237.242 41.3733 236.908 41.16C236.575 40.9333 236.148 40.82 235.628 40.82ZM257.705 39.16V50H255.725L255.385 48.6H255.265C255.038 48.9733 254.745 49.28 254.385 49.52C254.025 49.7467 253.632 49.9133 253.205 50.02C252.778 50.14 252.338 50.2 251.885 50.2C251.085 50.2 250.392 50.06 249.805 49.78C249.218 49.5 248.772 49.0733 248.465 48.5C248.158 47.9133 248.005 47.16 248.005 46.24V39.16H250.525V45.74C250.525 46.54 250.685 47.1467 251.005 47.56C251.325 47.96 251.832 48.16 252.525 48.16C253.205 48.16 253.738 48.02 254.125 47.74C254.512 47.4467 254.785 47.0267 254.945 46.48C255.105 45.9333 255.185 45.26 255.185 44.46V39.16H257.705ZM266.617 38.96C267.884 38.96 268.904 39.4333 269.677 40.38C270.45 41.3133 270.837 42.7067 270.837 44.56C270.837 45.7867 270.657 46.82 270.297 47.66C269.937 48.5 269.437 49.1333 268.797 49.56C268.157 49.9867 267.41 50.2 266.557 50.2C266.037 50.2 265.577 50.1333 265.177 50C264.777 49.8533 264.437 49.6733 264.157 49.46C263.877 49.2333 263.637 48.9933 263.437 48.74H263.277C263.33 48.98 263.37 49.2533 263.397 49.56C263.424 49.8533 263.437 50.1333 263.437 50.4V54.8H260.917V39.16H262.957L263.317 40.6H263.437C263.637 40.2933 263.877 40.02 264.157 39.78C264.45 39.5267 264.797 39.3267 265.197 39.18C265.61 39.0333 266.084 38.96 266.617 38.96ZM265.897 41C265.31 41 264.837 41.12 264.477 41.36C264.117 41.5867 263.857 41.94 263.697 42.42C263.537 42.9 263.45 43.5 263.437 44.22V44.54C263.437 45.3133 263.51 45.9667 263.657 46.5C263.817 47.0333 264.077 47.44 264.437 47.72C264.81 48 265.31 48.14 265.937 48.14C266.47 48.14 266.904 47.9933 267.237 47.7C267.584 47.4067 267.837 46.9933 267.997 46.46C268.17 45.9133 268.257 45.2667 268.257 44.52C268.257 43.4 268.064 42.5333 267.677 41.92C267.304 41.3067 266.71 41 265.897 41ZM277.016 50.2C275.763 50.2 274.743 49.7333 273.956 48.8C273.183 47.8533 272.796 46.4533 272.796 44.6C272.796 42.7467 273.19 41.3467 273.976 40.4C274.763 39.44 275.796 38.96 277.076 38.96C277.61 38.96 278.076 39.0333 278.476 39.18C278.89 39.3133 279.243 39.5 279.536 39.74C279.83 39.98 280.076 40.2467 280.276 40.54H280.396C280.356 40.3533 280.316 40.0667 280.276 39.68C280.236 39.2933 280.216 38.9333 280.216 38.6V34.8H282.736V50H280.776L280.316 48.58H280.216C280.016 48.8733 279.77 49.1467 279.476 49.4C279.183 49.64 278.836 49.8333 278.436 49.98C278.036 50.1267 277.563 50.2 277.016 50.2ZM277.776 48.16C278.71 48.16 279.37 47.8933 279.756 47.36C280.143 46.8267 280.336 46.02 280.336 44.94V44.62C280.336 43.4467 280.15 42.5533 279.776 41.94C279.416 41.3267 278.736 41.02 277.736 41.02C276.976 41.02 276.39 41.34 275.976 41.98C275.563 42.6067 275.356 43.4933 275.356 44.64C275.356 45.7867 275.563 46.66 275.976 47.26C276.39 47.86 276.99 48.16 277.776 48.16ZM290.276 38.96C291.676 38.96 292.736 39.2667 293.456 39.88C294.189 40.48 294.556 41.4267 294.556 42.72V50H292.776L292.276 48.5H292.196C291.889 48.8867 291.569 49.2133 291.236 49.48C290.916 49.7333 290.543 49.9133 290.116 50.02C289.703 50.14 289.196 50.2 288.596 50.2C287.956 50.2 287.376 50.08 286.856 49.84C286.349 49.6 285.949 49.2333 285.656 48.74C285.363 48.2333 285.216 47.6 285.216 46.84C285.216 45.72 285.623 44.88 286.436 44.32C287.263 43.7467 288.509 43.4333 290.176 43.38L292.056 43.32V42.78C292.056 42.0867 291.889 41.5933 291.556 41.3C291.223 41.0067 290.756 40.86 290.156 40.86C289.609 40.86 289.083 40.94 288.576 41.1C288.069 41.26 287.576 41.4467 287.096 41.66L286.296 39.9C286.829 39.62 287.436 39.3933 288.116 39.22C288.809 39.0467 289.529 38.96 290.276 38.96ZM290.736 44.92C289.629 44.96 288.863 45.1533 288.436 45.5C288.009 45.8333 287.796 46.2867 287.796 46.86C287.796 47.3667 287.949 47.7333 288.256 47.96C288.563 48.1867 288.956 48.3 289.436 48.3C290.169 48.3 290.789 48.0933 291.296 47.68C291.803 47.2533 292.056 46.6267 292.056 45.8V44.88L290.736 44.92ZM301.914 48.18C302.234 48.18 302.54 48.1533 302.834 48.1C303.127 48.0333 303.4 47.96 303.654 47.88V49.76C303.387 49.88 303.04 49.98 302.614 50.06C302.187 50.1533 301.74 50.2 301.274 50.2C300.66 50.2 300.1 50.1 299.594 49.9C299.1 49.6867 298.7 49.3267 298.394 48.82C298.1 48.3133 297.954 47.6067 297.954 46.7V41.06H296.494V39.96L298.094 39.08L298.894 36.78H300.474V39.16H303.554V41.06H300.474V46.68C300.474 47.1867 300.607 47.5667 300.874 47.82C301.14 48.06 301.487 48.18 301.914 48.18ZM310.199 38.96C311.172 38.96 312.005 39.16 312.699 39.56C313.405 39.9467 313.952 40.5067 314.339 41.24C314.725 41.96 314.919 42.84 314.919 43.88V45.16H307.759C307.785 46.1467 308.059 46.9133 308.579 47.46C309.099 47.9933 309.819 48.26 310.739 48.26C311.445 48.26 312.072 48.1933 312.619 48.06C313.179 47.9133 313.752 47.7067 314.339 47.44V49.46C313.805 49.7133 313.252 49.9 312.679 50.02C312.105 50.14 311.419 50.2 310.619 50.2C309.565 50.2 308.625 50 307.799 49.6C306.985 49.1867 306.345 48.5667 305.879 47.74C305.425 46.9133 305.199 45.8867 305.199 44.66C305.199 43.42 305.405 42.38 305.819 41.54C306.245 40.6867 306.832 40.0467 307.579 39.62C308.325 39.18 309.199 38.96 310.199 38.96ZM310.199 40.82C309.532 40.82 308.985 41.04 308.559 41.48C308.145 41.9067 307.899 42.5467 307.819 43.4H312.479C312.479 42.8933 312.392 42.4467 312.219 42.06C312.059 41.6733 311.812 41.3733 311.479 41.16C311.145 40.9333 310.719 40.82 310.199 40.82ZM328.275 41.06H325.655V50H323.135V41.06H321.395V39.86L323.135 39.14V38.4C323.135 37.4667 323.282 36.7333 323.575 36.2C323.868 35.6667 324.295 35.2867 324.855 35.06C325.415 34.82 326.075 34.7 326.835 34.7C327.368 34.7 327.848 34.7467 328.275 34.84C328.702 34.92 329.055 35.0133 329.335 35.12L328.695 37C328.468 36.9333 328.215 36.8733 327.935 36.82C327.668 36.7533 327.375 36.72 327.055 36.72C326.575 36.72 326.222 36.8733 325.995 37.18C325.768 37.4867 325.655 37.9133 325.655 38.46V39.16H328.275V41.06ZM335.757 38.96C335.917 38.96 336.104 38.9667 336.317 38.98C336.53 38.9933 336.71 39.02 336.857 39.06L336.637 41.4C336.517 41.3733 336.357 41.3533 336.157 41.34C335.97 41.3133 335.804 41.3 335.657 41.3C335.257 41.3 334.87 41.3667 334.497 41.5C334.137 41.62 333.81 41.8067 333.517 42.06C333.237 42.3 333.01 42.6133 332.837 43C332.677 43.3867 332.597 43.8467 332.597 44.38V50H330.077V39.16H332.017L332.377 41.04H332.497C332.71 40.6533 332.977 40.3067 333.297 40C333.617 39.68 333.984 39.4267 334.397 39.24C334.824 39.0533 335.277 38.96 335.757 38.96ZM348.155 44.56C348.155 45.4667 348.035 46.2667 347.795 46.96C347.555 47.6533 347.209 48.2467 346.755 48.74C346.315 49.22 345.769 49.5867 345.115 49.84C344.475 50.08 343.762 50.2 342.975 50.2C342.229 50.2 341.542 50.08 340.915 49.84C340.289 49.5867 339.742 49.22 339.275 48.74C338.822 48.2467 338.469 47.6533 338.215 46.96C337.962 46.2667 337.835 45.4667 337.835 44.56C337.835 43.36 338.042 42.3467 338.455 41.52C338.869 40.68 339.462 40.0467 340.235 39.62C341.022 39.18 341.949 38.96 343.015 38.96C344.029 38.96 344.915 39.18 345.675 39.62C346.449 40.0467 347.055 40.68 347.495 41.52C347.935 42.3467 348.155 43.36 348.155 44.56ZM340.415 44.56C340.415 45.32 340.502 45.9733 340.675 46.52C340.862 47.0533 341.142 47.46 341.515 47.74C341.902 48.02 342.395 48.16 342.995 48.16C343.609 48.16 344.102 48.02 344.475 47.74C344.862 47.46 345.142 47.0533 345.315 46.52C345.489 45.9733 345.575 45.32 345.575 44.56C345.575 43.7867 345.482 43.14 345.295 42.62C345.122 42.0867 344.842 41.6867 344.455 41.42C344.082 41.14 343.595 41 342.995 41C342.089 41 341.429 41.3067 341.015 41.92C340.615 42.5333 340.415 43.4133 340.415 44.56ZM363.181 38.96C364.407 38.96 365.327 39.2733 365.941 39.9C366.567 40.5267 366.881 41.54 366.881 42.94V50H364.361V43.42C364.361 42.62 364.214 42.02 363.921 41.62C363.627 41.2067 363.161 41 362.521 41C361.641 41 361.014 41.2867 360.641 41.86C360.267 42.4333 360.081 43.2667 360.081 44.36V50H357.561V43.42C357.561 42.8867 357.494 42.44 357.361 42.08C357.227 41.72 357.021 41.4533 356.741 41.28C356.474 41.0933 356.127 41 355.701 41C355.101 41 354.621 41.1467 354.261 41.44C353.901 41.72 353.647 42.1333 353.501 42.68C353.354 43.2267 353.281 43.9 353.281 44.7V50H350.761V39.16H352.701L353.061 40.58H353.201C353.427 40.2067 353.701 39.9 354.021 39.66C354.354 39.42 354.721 39.2467 355.121 39.14C355.534 39.02 355.947 38.96 356.361 38.96C357.174 38.96 357.861 39.1 358.421 39.38C358.981 39.6467 359.401 40.0667 359.681 40.64H359.881C360.214 40.0533 360.681 39.6267 361.281 39.36C361.894 39.0933 362.527 38.96 363.181 38.96ZM124.3 72.34C124.233 72.0867 124.153 71.7733 124.06 71.4C123.967 71.0133 123.867 70.6133 123.76 70.2C123.667 69.7867 123.573 69.4067 123.48 69.06C123.4 68.7133 123.347 68.4467 123.32 68.26H123.24C123.2 68.4467 123.14 68.7133 123.06 69.06C122.98 69.4067 122.893 69.7867 122.8 70.2C122.707 70.6133 122.607 71.0133 122.5 71.4C122.407 71.7867 122.327 72.1067 122.26 72.36L121 77H118.24L115.2 66.14H117.74L119.08 71.32C119.173 71.6667 119.26 72.06 119.34 72.5C119.433 72.94 119.513 73.3667 119.58 73.78C119.647 74.18 119.693 74.5067 119.72 74.76H119.8C119.827 74.5867 119.86 74.36 119.9 74.08C119.94 73.7867 119.987 73.4867 120.04 73.18C120.107 72.86 120.167 72.5667 120.22 72.3C120.287 72.0333 120.34 71.8267 120.38 71.68L121.94 66.14H124.7L126.2 71.68C126.267 71.92 126.34 72.2333 126.42 72.62C126.5 73.0067 126.573 73.3933 126.64 73.78C126.707 74.1667 126.747 74.4867 126.76 74.74H126.84C126.867 74.5133 126.913 74.2067 126.98 73.82C127.047 73.42 127.127 72.9933 127.22 72.54C127.313 72.0867 127.413 71.68 127.52 71.32L128.88 66.14H131.38L128.3 77H125.5L124.3 72.34ZM137.542 65.96C138.942 65.96 140.002 66.2667 140.722 66.88C141.455 67.48 141.822 68.4267 141.822 69.72V77H140.042L139.542 75.5H139.462C139.155 75.8867 138.835 76.2133 138.502 76.48C138.182 76.7333 137.808 76.9133 137.382 77.02C136.968 77.14 136.462 77.2 135.862 77.2C135.222 77.2 134.642 77.08 134.122 76.84C133.615 76.6 133.215 76.2333 132.922 75.74C132.628 75.2333 132.482 74.6 132.482 73.84C132.482 72.72 132.888 71.88 133.702 71.32C134.528 70.7467 135.775 70.4333 137.442 70.38L139.322 70.32V69.78C139.322 69.0867 139.155 68.5933 138.822 68.3C138.488 68.0067 138.022 67.86 137.422 67.86C136.875 67.86 136.348 67.94 135.842 68.1C135.335 68.26 134.842 68.4467 134.362 68.66L133.562 66.9C134.095 66.62 134.702 66.3933 135.382 66.22C136.075 66.0467 136.795 65.96 137.542 65.96ZM138.002 71.92C136.895 71.96 136.128 72.1533 135.702 72.5C135.275 72.8333 135.062 73.2867 135.062 73.86C135.062 74.3667 135.215 74.7333 135.522 74.96C135.828 75.1867 136.222 75.3 136.702 75.3C137.435 75.3 138.055 75.0933 138.562 74.68C139.068 74.2533 139.322 73.6267 139.322 72.8V71.88L138.002 71.92ZM150.659 65.96C150.819 65.96 151.006 65.9667 151.219 65.98C151.433 65.9933 151.613 66.02 151.759 66.06L151.539 68.4C151.419 68.3733 151.259 68.3533 151.059 68.34C150.873 68.3133 150.706 68.3 150.559 68.3C150.159 68.3 149.773 68.3667 149.399 68.5C149.039 68.62 148.713 68.8067 148.419 69.06C148.139 69.3 147.913 69.6133 147.739 70C147.579 70.3867 147.499 70.8467 147.499 71.38V77H144.979V66.16H146.919L147.279 68.04H147.399C147.613 67.6533 147.879 67.3067 148.199 67C148.519 66.68 148.886 66.4267 149.299 66.24C149.726 66.0533 150.179 65.96 150.659 65.96ZM157.738 65.96C158.711 65.96 159.544 66.16 160.238 66.56C160.944 66.9467 161.491 67.5067 161.878 68.24C162.264 68.96 162.458 69.84 162.458 70.88V72.16H155.298C155.324 73.1467 155.598 73.9133 156.118 74.46C156.638 74.9933 157.358 75.26 158.278 75.26C158.984 75.26 159.611 75.1933 160.158 75.06C160.718 74.9133 161.291 74.7067 161.878 74.44V76.46C161.344 76.7133 160.791 76.9 160.218 77.02C159.644 77.14 158.958 77.2 158.158 77.2C157.104 77.2 156.164 77 155.338 76.6C154.524 76.1867 153.884 75.5667 153.418 74.74C152.964 73.9133 152.738 72.8867 152.738 71.66C152.738 70.42 152.944 69.38 153.358 68.54C153.784 67.6867 154.371 67.0467 155.118 66.62C155.864 66.18 156.738 65.96 157.738 65.96ZM157.738 67.82C157.071 67.82 156.524 68.04 156.098 68.48C155.684 68.9067 155.438 69.5467 155.358 70.4H160.018C160.018 69.8933 159.931 69.4467 159.758 69.06C159.598 68.6733 159.351 68.3733 159.018 68.16C158.684 67.9333 158.258 67.82 157.738 67.82ZM167.519 65.42C167.519 65.8467 167.499 66.2667 167.459 66.68C167.432 67.08 167.406 67.38 167.379 67.58H167.539C167.766 67.2067 168.046 66.9067 168.379 66.68C168.712 66.44 169.079 66.26 169.479 66.14C169.892 66.02 170.319 65.96 170.759 65.96C171.572 65.96 172.272 66.1 172.859 66.38C173.446 66.66 173.892 67.0933 174.199 67.68C174.519 68.2533 174.679 69.0067 174.679 69.94V77H172.159V70.44C172.159 69.6133 171.999 69 171.679 68.6C171.359 68.2 170.852 68 170.159 68C169.492 68 168.966 68.1467 168.579 68.44C168.192 68.72 167.919 69.14 167.759 69.7C167.599 70.2467 167.519 70.92 167.519 71.72V77H164.999V61.8H167.519V65.42ZM187.511 71.56C187.511 72.4667 187.391 73.2667 187.151 73.96C186.911 74.6533 186.564 75.2467 186.111 75.74C185.671 76.22 185.124 76.5867 184.471 76.84C183.831 77.08 183.118 77.2 182.331 77.2C181.584 77.2 180.898 77.08 180.271 76.84C179.644 76.5867 179.098 76.22 178.631 75.74C178.178 75.2467 177.824 74.6533 177.571 73.96C177.318 73.2667 177.191 72.4667 177.191 71.56C177.191 70.36 177.398 69.3467 177.811 68.52C178.224 67.68 178.818 67.0467 179.591 66.62C180.378 66.18 181.304 65.96 182.371 65.96C183.384 65.96 184.271 66.18 185.031 66.62C185.804 67.0467 186.411 67.68 186.851 68.52C187.291 69.3467 187.511 70.36 187.511 71.56ZM179.771 71.56C179.771 72.32 179.858 72.9733 180.031 73.52C180.218 74.0533 180.498 74.46 180.871 74.74C181.258 75.02 181.751 75.16 182.351 75.16C182.964 75.16 183.458 75.02 183.831 74.74C184.218 74.46 184.498 74.0533 184.671 73.52C184.844 72.9733 184.931 72.32 184.931 71.56C184.931 70.7867 184.838 70.14 184.651 69.62C184.478 69.0867 184.198 68.6867 183.811 68.42C183.438 68.14 182.951 68 182.351 68C181.444 68 180.784 68.3067 180.371 68.92C179.971 69.5333 179.771 70.4133 179.771 71.56ZM199.736 66.16V77H197.756L197.416 75.6H197.296C197.069 75.9733 196.776 76.28 196.416 76.52C196.056 76.7467 195.663 76.9133 195.236 77.02C194.809 77.14 194.369 77.2 193.916 77.2C193.116 77.2 192.423 77.06 191.836 76.78C191.249 76.5 190.803 76.0733 190.496 75.5C190.189 74.9133 190.036 74.16 190.036 73.24V66.16H192.556V72.74C192.556 73.54 192.716 74.1467 193.036 74.56C193.356 74.96 193.863 75.16 194.556 75.16C195.236 75.16 195.769 75.02 196.156 74.74C196.543 74.4467 196.816 74.0267 196.976 73.48C197.136 72.9333 197.216 72.26 197.216 71.46V66.16H199.736ZM210.328 73.86C210.328 74.58 210.155 75.1933 209.808 75.7C209.461 76.1933 208.948 76.5667 208.268 76.82C207.601 77.0733 206.781 77.2 205.808 77.2C205.048 77.2 204.395 77.1467 203.848 77.04C203.301 76.9333 202.781 76.7667 202.288 76.54V74.4C202.821 74.6533 203.415 74.8667 204.068 75.04C204.721 75.2133 205.328 75.3 205.888 75.3C206.581 75.3 207.081 75.1933 207.388 74.98C207.695 74.7667 207.848 74.48 207.848 74.12C207.848 73.9067 207.788 73.7133 207.668 73.54C207.548 73.3667 207.315 73.1867 206.968 73C206.621 72.8 206.095 72.5533 205.388 72.26C204.695 71.98 204.115 71.7 203.648 71.42C203.195 71.14 202.848 70.8067 202.608 70.42C202.381 70.02 202.268 69.52 202.268 68.92C202.268 67.9467 202.655 67.2133 203.428 66.72C204.201 66.2133 205.221 65.96 206.488 65.96C207.155 65.96 207.781 66.0267 208.368 66.16C208.968 66.28 209.568 66.48 210.168 66.76L209.368 68.62C209.035 68.4733 208.701 68.3467 208.368 68.24C208.048 68.12 207.721 68.0267 207.388 67.96C207.068 67.8933 206.741 67.86 206.408 67.86C205.861 67.86 205.448 67.9467 205.168 68.12C204.888 68.28 204.748 68.5067 204.748 68.8C204.748 69.0267 204.815 69.2267 204.948 69.4C205.095 69.56 205.341 69.7267 205.688 69.9C206.048 70.06 206.555 70.2733 207.208 70.54C207.861 70.7933 208.415 71.06 208.868 71.34C209.335 71.6067 209.695 71.94 209.948 72.34C210.201 72.74 210.328 73.2467 210.328 73.86ZM217.113 65.96C218.086 65.96 218.919 66.16 219.613 66.56C220.319 66.9467 220.866 67.5067 221.253 68.24C221.639 68.96 221.833 69.84 221.833 70.88V72.16H214.673C214.699 73.1467 214.973 73.9133 215.493 74.46C216.013 74.9933 216.733 75.26 217.653 75.26C218.359 75.26 218.986 75.1933 219.533 75.06C220.093 74.9133 220.666 74.7067 221.253 74.44V76.46C220.719 76.7133 220.166 76.9 219.593 77.02C219.019 77.14 218.333 77.2 217.533 77.2C216.479 77.2 215.539 77 214.713 76.6C213.899 76.1867 213.259 75.5667 212.793 74.74C212.339 73.9133 212.113 72.8867 212.113 71.66C212.113 70.42 212.319 69.38 212.733 68.54C213.159 67.6867 213.746 67.0467 214.493 66.62C215.239 66.18 216.113 65.96 217.113 65.96ZM217.113 67.82C216.446 67.82 215.899 68.04 215.473 68.48C215.059 68.9067 214.813 69.5467 214.733 70.4H219.393C219.393 69.8933 219.306 69.4467 219.133 69.06C218.973 68.6733 218.726 68.3733 218.393 68.16C218.059 67.9333 217.633 67.82 217.113 67.82Z" fill="#6E6E6E"/>
<path d="M151.98 141H149.42V128.88H145.32V126.72H156.08V128.88H151.98V141ZM162.71 129.96C162.87 129.96 163.057 129.967 163.27 129.98C163.483 129.993 163.663 130.02 163.81 130.06L163.59 132.4C163.47 132.373 163.31 132.353 163.11 132.34C162.923 132.313 162.757 132.3 162.61 132.3C162.21 132.3 161.823 132.367 161.45 132.5C161.09 132.62 160.763 132.807 160.47 133.06C160.19 133.3 159.963 133.613 159.79 134C159.63 134.387 159.55 134.847 159.55 135.38V141H157.03V130.16H158.97L159.33 132.04H159.45C159.663 131.653 159.93 131.307 160.25 131C160.57 130.68 160.937 130.427 161.35 130.24C161.777 130.053 162.23 129.96 162.71 129.96ZM169.749 129.96C171.149 129.96 172.209 130.267 172.929 130.88C173.662 131.48 174.029 132.427 174.029 133.72V141H172.249L171.749 139.5H171.669C171.362 139.887 171.042 140.213 170.709 140.48C170.389 140.733 170.015 140.913 169.589 141.02C169.175 141.14 168.669 141.2 168.069 141.2C167.429 141.2 166.849 141.08 166.329 140.84C165.822 140.6 165.422 140.233 165.129 139.74C164.835 139.233 164.689 138.6 164.689 137.84C164.689 136.72 165.095 135.88 165.909 135.32C166.735 134.747 167.982 134.433 169.649 134.38L171.529 134.32V133.78C171.529 133.087 171.362 132.593 171.029 132.3C170.695 132.007 170.229 131.86 169.629 131.86C169.082 131.86 168.555 131.94 168.049 132.1C167.542 132.26 167.049 132.447 166.569 132.66L165.769 130.9C166.302 130.62 166.909 130.393 167.589 130.22C168.282 130.047 169.002 129.96 169.749 129.96ZM170.209 135.92C169.102 135.96 168.335 136.153 167.909 136.5C167.482 136.833 167.269 137.287 167.269 137.86C167.269 138.367 167.422 138.733 167.729 138.96C168.035 139.187 168.429 139.3 168.909 139.3C169.642 139.3 170.262 139.093 170.769 138.68C171.275 138.253 171.529 137.627 171.529 136.8V135.88L170.209 135.92ZM181.566 141.2C180.54 141.2 179.646 141.007 178.886 140.62C178.14 140.22 177.56 139.613 177.146 138.8C176.746 137.973 176.546 136.92 176.546 135.64C176.546 134.307 176.766 133.227 177.206 132.4C177.66 131.56 178.28 130.947 179.066 130.56C179.853 130.16 180.753 129.96 181.766 129.96C182.446 129.96 183.053 130.027 183.586 130.16C184.12 130.293 184.573 130.453 184.946 130.64L184.206 132.62C183.793 132.46 183.38 132.327 182.966 132.22C182.553 132.1 182.153 132.04 181.766 132.04C181.166 132.04 180.666 132.173 180.266 132.44C179.88 132.707 179.593 133.107 179.406 133.64C179.22 134.16 179.126 134.82 179.126 135.62C179.126 136.393 179.22 137.04 179.406 137.56C179.606 138.08 179.9 138.473 180.286 138.74C180.673 138.993 181.153 139.12 181.726 139.12C182.34 139.12 182.88 139.047 183.346 138.9C183.813 138.753 184.253 138.553 184.666 138.3V140.48C184.253 140.733 183.806 140.913 183.326 141.02C182.86 141.14 182.273 141.2 181.566 141.2ZM189.706 133.02C189.706 133.367 189.693 133.733 189.666 134.12C189.639 134.493 189.613 134.86 189.586 135.22H189.646C189.753 135.06 189.879 134.887 190.026 134.7C190.173 134.5 190.319 134.307 190.466 134.12C190.626 133.92 190.779 133.74 190.926 133.58L194.126 130.16H196.986L192.646 134.84L197.266 141H194.326L190.966 136.36L189.706 137.4V141H187.206V125.8H189.706V133.02ZM217.159 133.84C217.159 134.947 217.019 135.953 216.739 136.86C216.472 137.753 216.059 138.527 215.499 139.18C214.952 139.833 214.252 140.333 213.399 140.68C212.559 141.027 211.572 141.2 210.439 141.2C209.292 141.2 208.292 141.027 207.439 140.68C206.599 140.32 205.906 139.82 205.359 139.18C204.812 138.527 204.399 137.747 204.119 136.84C203.852 135.933 203.719 134.927 203.719 133.82C203.719 132.34 203.959 131.053 204.439 129.96C204.932 128.867 205.672 128.02 206.659 127.42C207.659 126.807 208.926 126.5 210.459 126.5C211.966 126.5 213.212 126.807 214.199 127.42C215.186 128.02 215.926 128.873 216.419 129.98C216.912 131.073 217.159 132.36 217.159 133.84ZM206.419 133.84C206.419 134.92 206.559 135.847 206.839 136.62C207.132 137.393 207.572 137.987 208.159 138.4C208.759 138.813 209.519 139.02 210.439 139.02C211.386 139.02 212.152 138.813 212.739 138.4C213.326 137.987 213.759 137.393 214.039 136.62C214.319 135.847 214.459 134.92 214.459 133.84C214.459 132.227 214.146 130.96 213.519 130.04C212.892 129.12 211.872 128.66 210.459 128.66C209.526 128.66 208.759 128.867 208.159 129.28C207.572 129.693 207.132 130.287 206.839 131.06C206.559 131.833 206.419 132.76 206.419 133.84ZM225.64 129.96C225.8 129.96 225.987 129.967 226.2 129.98C226.413 129.993 226.593 130.02 226.74 130.06L226.52 132.4C226.4 132.373 226.24 132.353 226.04 132.34C225.853 132.313 225.687 132.3 225.54 132.3C225.14 132.3 224.753 132.367 224.38 132.5C224.02 132.62 223.693 132.807 223.4 133.06C223.12 133.3 222.893 133.613 222.72 134C222.56 134.387 222.48 134.847 222.48 135.38V141H219.96V130.16H221.9L222.26 132.04H222.38C222.593 131.653 222.86 131.307 223.18 131C223.5 130.68 223.867 130.427 224.28 130.24C224.707 130.053 225.16 129.96 225.64 129.96ZM231.938 141.2C230.685 141.2 229.665 140.733 228.878 139.8C228.105 138.853 227.718 137.453 227.718 135.6C227.718 133.747 228.112 132.347 228.898 131.4C229.685 130.44 230.718 129.96 231.998 129.96C232.532 129.96 232.998 130.033 233.398 130.18C233.812 130.313 234.165 130.5 234.458 130.74C234.752 130.98 234.998 131.247 235.198 131.54H235.318C235.278 131.353 235.238 131.067 235.198 130.68C235.158 130.293 235.138 129.933 235.138 129.6V125.8H237.658V141H235.698L235.238 139.58H235.138C234.938 139.873 234.692 140.147 234.398 140.4C234.105 140.64 233.758 140.833 233.358 140.98C232.958 141.127 232.485 141.2 231.938 141.2ZM232.698 139.16C233.632 139.16 234.292 138.893 234.678 138.36C235.065 137.827 235.258 137.02 235.258 135.94V135.62C235.258 134.447 235.072 133.553 234.698 132.94C234.338 132.327 233.658 132.02 232.658 132.02C231.898 132.02 231.312 132.34 230.898 132.98C230.485 133.607 230.278 134.493 230.278 135.64C230.278 136.787 230.485 137.66 230.898 138.26C231.312 138.86 231.912 139.16 232.698 139.16ZM245.238 129.96C246.211 129.96 247.044 130.16 247.738 130.56C248.444 130.947 248.991 131.507 249.378 132.24C249.764 132.96 249.958 133.84 249.958 134.88V136.16H242.798C242.824 137.147 243.098 137.913 243.618 138.46C244.138 138.993 244.858 139.26 245.778 139.26C246.484 139.26 247.111 139.193 247.658 139.06C248.218 138.913 248.791 138.707 249.378 138.44V140.46C248.844 140.713 248.291 140.9 247.718 141.02C247.144 141.14 246.458 141.2 245.658 141.2C244.604 141.2 243.664 141 242.838 140.6C242.024 140.187 241.384 139.567 240.918 138.74C240.464 137.913 240.238 136.887 240.238 135.66C240.238 134.42 240.444 133.38 240.858 132.54C241.284 131.687 241.871 131.047 242.618 130.62C243.364 130.18 244.238 129.96 245.238 129.96ZM245.238 131.82C244.571 131.82 244.024 132.04 243.598 132.48C243.184 132.907 242.938 133.547 242.858 134.4H247.518C247.518 133.893 247.431 133.447 247.258 133.06C247.098 132.673 246.851 132.373 246.518 132.16C246.184 131.933 245.758 131.82 245.238 131.82ZM258.179 129.96C258.339 129.96 258.526 129.967 258.739 129.98C258.952 129.993 259.132 130.02 259.279 130.06L259.059 132.4C258.939 132.373 258.779 132.353 258.579 132.34C258.392 132.313 258.226 132.3 258.079 132.3C257.679 132.3 257.292 132.367 256.919 132.5C256.559 132.62 256.232 132.807 255.939 133.06C255.659 133.3 255.432 133.613 255.259 134C255.099 134.387 255.019 134.847 255.019 135.38V141H252.499V130.16H254.439L254.799 132.04H254.919C255.132 131.653 255.399 131.307 255.719 131C256.039 130.68 256.406 130.427 256.819 130.24C257.246 130.053 257.699 129.96 258.179 129.96Z" fill="white"/>
</g>
<defs>
<clipPath id="clip0_1_29">
<rect width="390" height="187" fill="white"/>
</clipPath>
</defs>
</svg>
